<?xml version="1.0" encoding="utf-8"?>
<!-- Generator: Adobe Illustrator 18.0.0, SVG Export Plug-In . SVG Version: 6.00 Build 0)  -->
<!DOCTYPE svg PUBLIC "-//W3C//DTD SVG 1.1//EN" "http://www.w3.org/Graphics/SVG/1.1/DTD/svg11.dtd">
<svg version="1.1" id="圖層_1" xmlns="http://www.w3.org/2000/svg" xmlns:xlink="http://www.w3.org/1999/xlink" x="0px" y="0px"
	 viewBox="0 0 320 320" enable-background="new 0 0 320 320" xml:space="preserve">
<g>
	<path fill="#364152" d="M320,53.3c0,5.4-4.3,9.7-9.7,9.7H174.5c-5.4,0-9.7-4.3-9.7-9.7s4.3-9.7,9.7-9.7h135.8
		C315.7,43.6,320,48,320,53.3z"/>
	<path fill="#364152" d="M67.9,266.7c0,5.4-4.3,9.7-9.7,9.7H9.7c-5.4,0-9.7-4.3-9.7-9.7c0-5.4,4.3-9.7,9.7-9.7h48.5
		C63.5,257,67.9,261.3,67.9,266.7z"/>
	<path fill="#364152" d="M184.2,160c0,5.4-4.3,9.7-9.7,9.7H9.7c-5.4,0-9.7-4.3-9.7-9.7s4.3-9.7,9.7-9.7h164.8
		C179.9,150.3,184.2,154.6,184.2,160z"/>
	<path fill="#364152" d="M87.3,53.3c0,5.4-4.3,9.7-9.7,9.7H9.7C4.3,63,0,58.7,0,53.3c0-5.4,4.3-9.7,9.7-9.7h67.9
		C82.9,43.6,87.3,48,87.3,53.3z"/>
	<path fill="#364152" d="M320,266.7c0,5.4-4.3,9.7-9.7,9.7H155.2c-5.4,0-9.7-4.3-9.7-9.7c0-5.4,4.3-9.7,9.7-9.7h155.2
		C315.7,257,320,261.3,320,266.7z"/>
	<path fill="#364152" d="M320,160c0,5.4-4.3,9.7-9.7,9.7h-38.8c-5.4,0-9.7-4.3-9.7-9.7s4.3-9.7,9.7-9.7h38.8
		C315.7,150.3,320,154.6,320,160z"/>
	<path fill="#364152" d="M164.8,266.7c0,21.4-17.4,38.8-38.8,38.8H87.3c-21.4,0-38.8-17.4-38.8-38.8c0-21.4,17.4-38.8,38.8-38.8
		h38.8C147.4,227.9,164.8,245.3,164.8,266.7z M67.9,266.7c0,10.7,8.7,19.4,19.4,19.4h38.8c10.7,0,19.4-8.7,19.4-19.4
		c0-10.7-8.7-19.4-19.4-19.4H87.3C76.6,247.3,67.9,256,67.9,266.7z"/>
	<path fill="#364152" d="M281.2,160c0,21.4-17.4,38.8-38.8,38.8h-38.8c-21.4,0-38.8-17.4-38.8-38.8s17.4-38.8,38.8-38.8h38.8
		C263.8,121.2,281.2,138.6,281.2,160z M184.2,160c0,10.7,8.7,19.4,19.4,19.4h38.8c10.7,0,19.4-8.7,19.4-19.4s-8.7-19.4-19.4-19.4
		h-38.8C192.9,140.6,184.2,149.3,184.2,160z"/>
	<path fill="#364152" d="M184.2,53.3c0,21.4-17.4,38.8-38.8,38.8h-38.8c-21.4,0-38.8-17.4-38.8-38.8s17.4-38.8,38.8-38.8h38.8
		C166.8,14.5,184.2,32,184.2,53.3z M87.3,53.3c0,10.7,8.7,19.4,19.4,19.4h38.8c10.7,0,19.4-8.7,19.4-19.4s-8.7-19.4-19.4-19.4h-38.8
		C96,33.9,87.3,42.6,87.3,53.3z"/>
</g>
</svg>
