<?xml version="1.0" encoding="utf-8"?>
<!-- Generator: Adobe Illustrator 18.0.0, SVG Export Plug-In . SVG Version: 6.00 Build 0)  -->
<!DOCTYPE svg PUBLIC "-//W3C//DTD SVG 1.1//EN" "http://www.w3.org/Graphics/SVG/1.1/DTD/svg11.dtd">
<svg version="1.1" id="圖層_1" xmlns="http://www.w3.org/2000/svg" xmlns:xlink="http://www.w3.org/1999/xlink" x="0px" y="0px"
	 viewBox="0 0 320 320" enable-background="new 0 0 320 320" xml:space="preserve">
<path fill="#009689" d="M105,17.8c0.6,0,1.1,0,1.7,0c0.6,0,1.1,0,1.7,0c6.6,0,13,0,18.7,1.5c15.3,4.1,27.3,16.1,31.4,31.4
	c1.5,5.7,1.5,12.2,1.5,18.7c0,0.6,0,1.1,0,1.7h142.2c9.8,0,17.8,8,17.8,17.8c0,9.8-8,17.8-17.8,17.8H160c0,0.6,0,1.1,0,1.7
	c0,6.6,0,13-1.5,18.7c-4.1,15.3-16.1,27.3-31.4,31.4c-5.7,1.5-12.2,1.5-18.7,1.5c-0.6,0-1.1,0-1.7,0c-0.6,0-1.1,0-1.7,0
	c-6.6,0-13,0-18.7-1.5c-15.3-4.1-27.3-16.1-31.4-31.4c-1.5-5.7-1.5-12.2-1.5-18.7c0-0.6,0-1.1,0-1.7H17.8C8,106.7,0,98.7,0,88.9
	c0-9.8,8-17.8,17.8-17.8h35.6c0-0.6,0-1.1,0-1.7c0-6.6,0-13,1.5-18.7C59,35.4,70.9,23.4,86.3,19.3C92,17.8,98.5,17.8,105,17.8z
	 M97.8,53.4c2-0.1,4.6-0.1,8.9-0.1L97.8,53.4z M106.7,53.3c4.3,0,6.9,0,8.9,0.1L106.7,53.3z M115.6,53.4c1.7,0.1,2.2,0.2,2.3,0.2
	L115.6,53.4z M117.9,53.6C117.9,53.6,117.9,53.6,117.9,53.6L117.9,53.6z M211.7,160c0.6,0,1.1,0,1.7,0s1.1,0,1.7,0
	c6.6,0,13,0,18.7,1.5c15.3,4.1,27.3,16.1,31.4,31.4c1.5,5.7,1.5,12.2,1.5,18.7c0,0.6,0,1.1,0,1.7h35.6c9.8,0,17.8,8,17.8,17.8
	s-8,17.8-17.8,17.8h-35.6c0,0.6,0,1.1,0,1.7c0,6.6,0,13-1.5,18.7c-4.1,15.3-16.1,27.3-31.4,31.4c-5.7,1.5-12.2,1.5-18.7,1.5
	c-0.6,0-1.1,0-1.7,0s-1.1,0-1.7,0c-6.6,0-13,0-18.7-1.5c-15.3-4.1-27.3-16.1-31.4-31.4c-1.5-5.7-1.5-12.2-1.5-18.7
	c0-0.6,0-1.1,0-1.7H17.8c-9.8,0-17.8-8-17.8-17.8s8-17.8,17.8-17.8H160c0-0.6,0-1.1,0-1.7c0-6.6,0-13,1.5-18.7
	c4.1-15.3,16.1-27.3,31.4-31.4C198.7,160,205.1,160,211.7,160z M204.4,195.7c-1.9,0.1-2.3,0.2-2.3,0.2c-3.1,0.8-5.5,3.2-6.3,6.3
	c0-0.1-0.1,0.4-0.2,2.3c-0.1,2-0.1,4.6-0.1,8.9v35.6c0,4.3,0,6.9,0.1,8.9c0.1,1.9,0.2,2.3,0.2,2.3c0.8,3.1,3.2,5.5,6.3,6.3
	c-0.1,0,0.4,0.1,2.3,0.2c2,0.1,4.6,0.1,8.9,0.1c4.3,0,6.9,0,8.9-0.1c1.9-0.1,2.3-0.2,2.3-0.2c3.1-0.8,5.5-3.2,6.3-6.3
	c0,0.1,0.1-0.4,0.2-2.3c0.1-2,0.1-4.6,0.1-8.9v-35.6c0-4.3,0-6.9-0.1-8.9c-0.1-1.9-0.2-2.3-0.2-2.3c-0.8-3.1-3.2-5.5-6.3-6.3
	c0.1,0-0.4-0.1-2.3-0.2c-2-0.1-4.6-0.1-8.9-0.1C209,195.6,206.4,195.6,204.4,195.7z M97.8,53.4c-1.9,0.1-2.3,0.2-2.3,0.2
	c-3.1,0.8-5.5,3.2-6.3,6.3c0-0.1-0.1,0.4-0.2,2.3c-0.1,2-0.1,4.6-0.1,8.9v35.6c0,4.3,0,6.9,0.1,8.9c0.1,1.9,0.2,2.3,0.2,2.3
	c0.8,3.1,3.2,5.5,6.3,6.3c-0.1,0,0.4,0.1,2.3,0.2c2,0.1,4.6,0.1,8.9,0.1s6.9,0,8.9-0.1c1.9-0.1,2.3-0.2,2.3-0.2
	c3.1-0.8,5.5-3.2,6.3-6.3c0,0.1,0.1-0.4,0.2-2.3c0.1-2,0.1-4.6,0.1-8.9V71.1c0-4.3,0-6.9-0.1-8.9c-0.1-1.9-0.2-2.3-0.2-2.3
	c-0.8-3.1-3.2-5.5-6.3-6.3c0.1,0-0.4-0.1-2.3-0.2c-2-0.1-4.6-0.1-8.9-0.1S99.7,53.3,97.8,53.4z"/>
</svg>
