<?xml version="1.0" encoding="utf-8"?>
<!-- Generator: Adobe Illustrator 18.0.0, SVG Export Plug-In . SVG Version: 6.00 Build 0)  -->
<!DOCTYPE svg PUBLIC "-//W3C//DTD SVG 1.1//EN" "http://www.w3.org/Graphics/SVG/1.1/DTD/svg11.dtd">
<svg version="1.1" id="圖層_1" xmlns="http://www.w3.org/2000/svg" xmlns:xlink="http://www.w3.org/1999/xlink" x="0px" y="0px"
	 viewBox="0 0 320 320" enable-background="new 0 0 320 320" xml:space="preserve">
<g>
	<path fill="#009689" d="M160,128c8.8,0,16,7.2,16,16v80c0,8.8-7.2,16-16,16s-16-7.2-16-16v-80C144,135.2,151.2,128,160,128z"/>
	<path fill="#009689" d="M160,80c8.8,0,16,7.2,16,16s-7.2,16-16,16s-16-7.2-16-16S151.2,80,160,80z"/>
	<path fill="#009689" d="M0,160C0,71.6,71.6,0,160,0c88.4,0,160,71.6,160,160c0,88.4-71.6,160-160,160C71.6,320,0,248.4,0,160z
		 M160,32C89.3,32,32,89.3,32,160c0,70.7,57.3,128,128,128c70.7,0,128-57.3,128-128C288,89.3,230.7,32,160,32z"/>
</g>
</svg>
