<?xml version="1.0" encoding="utf-8"?>
<!-- Generator: Adobe Illustrator 18.0.0, SVG Export Plug-In . SVG Version: 6.00 Build 0)  -->
<!DOCTYPE svg PUBLIC "-//W3C//DTD SVG 1.1//EN" "http://www.w3.org/Graphics/SVG/1.1/DTD/svg11.dtd">
<svg version="1.1" id="圖層_1" xmlns="http://www.w3.org/2000/svg" xmlns:xlink="http://www.w3.org/1999/xlink" x="0px" y="0px"
	 viewBox="0 0 320 320" enable-background="new 0 0 320 320" xml:space="preserve">
<g>
	<path fill="#364152" d="M160,320c-51.7,0-96.1-3.5-124.3-6.5c-16.4-1.7-29-14.1-30.7-30.1C2.7,262,0,223.2,0,160S2.7,58,5,36.7
		c1.7-16,14.3-28.4,30.7-30.1C63.9,3.5,108.3,0,160,0s96.1,3.5,124.3,6.5c16.4,1.7,29,14.1,30.7,30.1c2.3,21.4,5,60.1,5,123.3
		s-2.7,102-5,123.3c-1.7,16-14.3,28.4-30.7,30.1C256.1,316.5,211.7,320,160,320z M160,15.2c-51,0-94.9,3.5-122.7,6.4
		c-9.3,1-16.2,7.7-17.1,16.6c-2.2,21-4.9,59.1-4.9,121.7s2.7,100.7,4.9,121.7c1,9,7.9,15.7,17.1,16.6c27.8,2.9,71.7,6.4,122.7,6.4
		s94.9-3.5,122.7-6.4c9.3-1,16.2-7.7,17.1-16.6c2.2-21,4.9-59.1,4.9-121.7s-2.7-100.7-4.9-121.7c-1-9-7.9-15.7-17.1-16.6
		C254.9,18.7,211,15.2,160,15.2z"/>
	<path fill="#364152" d="M160,125.5c-17.3,0-31.3-14-31.3-31.3s14-31.3,31.3-31.3s31.3,14,31.3,31.3S177.3,125.5,160,125.5z
		 M160,78.1c-8.9,0-16.1,7.2-16.1,16.1s7.2,16.1,16.1,16.1s16.1-7.2,16.1-16.1S168.9,78.1,160,78.1z"/>
	<path fill="#364152" d="M160,257.2c-5.4,0-9.7-4.3-9.7-9.7v-86.7c0-5.4,4.3-9.7,9.7-9.7s9.7,4.3,9.7,9.7v86.7
		C169.7,252.8,165.4,257.2,160,257.2z"/>
</g>
</svg>
