<?xml version="1.0" encoding="utf-8"?>
<!-- Generator: Adobe Illustrator 18.0.0, SVG Export Plug-In . SVG Version: 6.00 Build 0)  -->
<!DOCTYPE svg PUBLIC "-//W3C//DTD SVG 1.1//EN" "http://www.w3.org/Graphics/SVG/1.1/DTD/svg11.dtd">
<svg version="1.1" id="圖層_1" xmlns="http://www.w3.org/2000/svg" xmlns:xlink="http://www.w3.org/1999/xlink" x="0px" y="0px"
	 viewBox="0 0 64 64" enable-background="new 0 0 64 64" xml:space="preserve">
<g>
	<linearGradient id="SVGID_1_" gradientUnits="userSpaceOnUse" x1="9.3726" y1="9.3726" x2="54.6274" y2="54.6274">
		<stop  offset="0" style="stop-color:#56A474"/>
		<stop  offset="1" style="stop-color:#3B7C94"/>
	</linearGradient>
	<circle fill="url(#SVGID_1_)" cx="32" cy="32" r="32"/>
	<path fill="#2F676C" d="M63.3,38.5L42.4,17.5L25.3,34.6L31.9,51l11,11C53.3,58.3,61.1,49.4,63.3,38.5z"/>
	<g>
		<path fill="#E4EDF2" d="M42.3,17.4c-5.6-6.2-15.1-6.2-20.7,0c-5.6,6.2-5.1,16.2,0.6,22.4l9.8,11.2l9.8-11.2
			C47.3,33.6,47.9,23.6,42.3,17.4z"/>
		<path fill="#C8CFDA" d="M32,12.8V51h0l9.8-11.2c5.6-6.2,6.2-16.2,0.6-22.4C39.5,14.3,35.7,12.8,32,12.8z"/>
	</g>
	<g>
		<circle fill="#F3DD3A" cx="31.9" cy="27.2" r="7.5"/>
		<path fill="#D59536" d="M39.5,27.2c0-4.1-3.4-7.5-7.5-7.5v15C36.1,34.7,39.5,31.3,39.5,27.2z"/>
	</g>
</g>
</svg>
