<?xml version="1.0" encoding="utf-8"?>
<!-- Generator: Adobe Illustrator 18.0.0, SVG Export Plug-In . SVG Version: 6.00 Build 0)  -->
<!DOCTYPE svg PUBLIC "-//W3C//DTD SVG 1.1//EN" "http://www.w3.org/Graphics/SVG/1.1/DTD/svg11.dtd">
<svg version="1.1" id="圖層_1" xmlns="http://www.w3.org/2000/svg" xmlns:xlink="http://www.w3.org/1999/xlink" x="0px" y="0px"
	 viewBox="0 0 320 400" enable-background="new 0 0 320 400" xml:space="preserve">
<g>
	<path opacity="0.2" d="M273.1,64.9c-62.5-62.5-163.8-62.5-226.3,0c-62.5,62.5-62.5,163.8,0,226.3l102.5,102.5
		c6,5.5,15.3,5.5,21.3,0l102.5-102.5C335.6,228.7,335.6,127.4,273.1,64.9z"/>
	<path fill="#FF6169" d="M273.1,49.1c-62.5-62.5-163.8-62.5-226.3,0c-62.5,62.5-62.5,163.8,0,226.3l102.5,102.5
		c6,5.5,15.3,5.5,21.3,0l102.5-102.5C335.6,212.9,335.6,111.6,273.1,49.1z"/>
	<circle opacity="0.1" cx="160" cy="178" r="108.8"/>
	<circle fill="#FFFFFF" cx="160" cy="162.2" r="108.8"/>
	<path fill="#FF6169" d="M168.7,183.8c0,16.2,8,30.5,20.4,39.2h-72.7c-9.6,0-17.4-7.8-17.4-17.4v-43.7h-8.7c-4.9,0-8.7-3.8-8.7-8.7
		c0-2.5,0.8-4.6,2.7-6.5l69.8-60.9c1.9-1.9,4.1-2.2,6-2.2c1.9,0,4.1,0.5,5.7,1.9l58,50.9c-2.3-0.4-4.7-0.5-7.1-0.5
		c-14.9,0-28.2,6.8-37,17.4h-11v-13.1c0-2.4-2-4.4-4.4-4.4h-8.7c-2.4,0-4.4,2-4.4,4.4v13.1h-13.1c-2.4,0-4.4,2-4.4,4.4v8.7
		c0,2.4,2,4.4,4.4,4.4h13.1v13.1c0,2.4,2,4.4,4.4,4.4h8.7C166.7,188.1,168.7,186.2,168.7,183.8z"/>
	<path fill="#FF6169" d="M246.4,148.5c-1.5-1.7-4-2-5.8-0.7l-28.2,20.7h19.5l14.2-14.2C247.7,152.7,247.8,150.2,246.4,148.5
		L246.4,148.5z M182.7,172.9c-2.4,0-4.3,1.9-4.3,4.3s1.9,4.3,4.3,4.3c0,11.1,5.9,19.9,16.7,23.8c-1.5,1.9-2.6,4.1-3.2,6.5
		c-0.6,2.3,1.4,4.3,3.8,4.3h25.9c2.4,0,4.4-2,3.8-4.3c-0.6-2.4-1.7-4.6-3.2-6.5c10.8-3.8,16.7-12.6,16.7-23.8c2.4,0,4.3-1.9,4.3-4.3
		s-1.9-4.3-4.3-4.3H182.7z"/>
</g>
</svg>
