<?xml version="1.0" encoding="utf-8"?>
<!-- Generator: Adobe Illustrator 18.0.0, SVG Export Plug-In . SVG Version: 6.00 Build 0)  -->
<!DOCTYPE svg PUBLIC "-//W3C//DTD SVG 1.1//EN" "http://www.w3.org/Graphics/SVG/1.1/DTD/svg11.dtd">
<svg version="1.1" id="圖層_1" xmlns="http://www.w3.org/2000/svg" xmlns:xlink="http://www.w3.org/1999/xlink" x="0px" y="0px"
	 viewBox="0 0 512 512" enable-background="new 0 0 512 512" xml:space="preserve">
<g>
	<path opacity="0.2" d="M277.8,380.4c-21.6,18-30.9,40.4-21.1,63c5.3,12.4,6.3,25.2,2,38.8c-2,6.4-3.8,12.8-5.6,19.2
		c-2.6,9.1,9.4,13.4,24.1,8.7c10.7-3.4,21.5-6.8,32.1-10.4c21.7-7.3,44.2-11.3,67.7-13.5c54.7-5.3,96-23.4,121-53.5
		c32.3-39.2,7.2-79.3-55.4-91.4C389,330.8,320.8,345.9,277.8,380.4z"/>
	<path fill="#FF7373" d="M51.4,215.9c1.6,55.5,28,110.9,82.1,152.1c29.5,22.6,53.7,49.5,71.7,82.1c8.5,15.4,17.4,30.5,26.1,45.7
		c12.4,21.6,37.1,21.6,49.5,0.1c9-15.7,18.3-31.3,26.9-47.2c17.7-32.6,42.5-58.4,71.5-81.4c67.8-53.7,94.1-124.5,75.7-208.8
		C431,49.2,324.3-17.9,214.3,4.2C120.3,23.1,50.9,108.2,51.4,215.9z"/>
	<path opacity="0.2" d="M334.6,409.7c13.2-15.5,28.2-29.4,44.6-42.4c36.6-29,61.2-63.1,73.1-101.5L293.9,107.5l-24.9,5.9l-38.6,14.4
		l0.6,37.9l-38.1-0.4l-9.6,54.7l-22.2,16.2l59.8,59.8L334.6,409.7z"/>
	<g>
		<path fill="#FFFFFF" d="M346,239.1H166c-4.1,0-7.5-3.4-7.5-7.5v-62c0-4.1,3.4-7.5,7.5-7.5H346c4.1,0,7.5,3.4,7.5,7.5v62
			C353.5,235.7,350.1,239.1,346,239.1z"/>
		<path fill="#FFFFFF" d="M217.5,290.5V110.6c0-4.1,3.4-7.5,7.5-7.5h62c4.1,0,7.5,3.4,7.5,7.5v179.9c0,4.1-3.4,7.5-7.5,7.5h-62
			C220.9,298,217.5,294.6,217.5,290.5z"/>
	</g>
</g>
</svg>
