<?xml version="1.0" encoding="utf-8"?>
<!-- Generator: Adobe Illustrator 18.0.0, SVG Export Plug-In . SVG Version: 6.00 Build 0)  -->
<!DOCTYPE svg PUBLIC "-//W3C//DTD SVG 1.1//EN" "http://www.w3.org/Graphics/SVG/1.1/DTD/svg11.dtd">
<svg version="1.1" id="圖層_1" xmlns="http://www.w3.org/2000/svg" xmlns:xlink="http://www.w3.org/1999/xlink" x="0px" y="0px"
	 viewBox="0 0 320 400" enable-background="new 0 0 320 400" xml:space="preserve">
<g>
	<path opacity="0.2" d="M273.1,64.9c-62.5-62.5-163.8-62.5-226.3,0c-62.5,62.5-62.5,163.8,0,226.3l102.5,102.5
		c6,5.5,15.3,5.5,21.3,0l102.5-102.5C335.6,228.7,335.6,127.4,273.1,64.9z"/>
	<path fill="#98A1B0" d="M273.1,49.1c-62.5-62.5-163.8-62.5-226.3,0c-62.5,62.5-62.5,163.8,0,226.3l102.5,102.5
		c6,5.5,15.3,5.5,21.3,0l102.5-102.5C335.6,212.9,335.6,111.6,273.1,49.1z"/>
	<circle opacity="0.1" cx="160" cy="178" r="108.8"/>
	<circle fill="#FFFFFF" cx="160" cy="162.2" r="108.8"/>
	<polygon fill="#98A1B0" points="202.3,217.4 159.3,194.3 116,216.5 124.7,168.6 90.1,134.2 138.4,127.6 160.4,84.1 181.6,128 
		229.8,135.5 194.5,169.2 	"/>
</g>
</svg>
