<?xml version="1.0" encoding="utf-8"?>
<!-- Generator: Adobe Illustrator 18.0.0, SVG Export Plug-In . SVG Version: 6.00 Build 0)  -->
<!DOCTYPE svg PUBLIC "-//W3C//DTD SVG 1.1//EN" "http://www.w3.org/Graphics/SVG/1.1/DTD/svg11.dtd">
<svg version="1.1" id="圖層_1" xmlns="http://www.w3.org/2000/svg" xmlns:xlink="http://www.w3.org/1999/xlink" x="0px" y="0px"
	 viewBox="0 0 320 400" enable-background="new 0 0 320 400" xml:space="preserve">
<g>
	<path opacity="0.2" d="M273.1,64.9c-62.5-62.5-163.8-62.5-226.3,0c-62.5,62.5-62.5,163.8,0,226.3l102.5,102.5
		c6,5.5,15.3,5.5,21.3,0l102.5-102.5C335.6,228.7,335.6,127.4,273.1,64.9z"/>
	<path fill="#FF6169" d="M273.1,49.1c-62.5-62.5-163.8-62.5-226.3,0c-62.5,62.5-62.5,163.8,0,226.3l102.5,102.5
		c6,5.5,15.3,5.5,21.3,0l102.5-102.5C335.6,212.9,335.6,111.6,273.1,49.1z"/>
	<circle opacity="0.1" cx="160" cy="178" r="108.8"/>
	<circle fill="#FFFFFF" cx="160" cy="162.2" r="108.8"/>
	<path fill="#FF6169" d="M168.7,183.8c0,16.2,8,30.5,20.4,39.2h-72.7c-9.6,0-17.4-7.8-17.4-17.4v-43.7h-8.7c-4.9,0-8.7-3.8-8.7-8.7
		c0-2.5,0.8-4.6,2.7-6.5l69.8-60.9c1.9-1.9,4.1-2.2,6-2.2c1.9,0,4.1,0.5,5.7,1.9l58,50.9c-2.3-0.4-4.7-0.5-7.1-0.5
		c-14.9,0-28.2,6.8-37,17.4h-11v-13.1c0-2.4-2-4.4-4.4-4.4h-8.7c-2.4,0-4.4,2-4.4,4.4v13.1h-13.1c-2.4,0-4.4,2-4.4,4.4v8.7
		c0,2.4,2,4.4,4.4,4.4h13.1v13.1c0,2.4,2,4.4,4.4,4.4h8.7C166.7,188.1,168.7,186.2,168.7,183.8z"/>
	<path fill="#FF6169" d="M210.1,156.6c-2.4-1.8-5.2-2.8-8.2-2.8c-7.4,0-13.4,6-13.4,13.4v0.9c0,2.2,0.5,4.4,1.5,6.4l3.3,6.6
		c0.6,1.2,1.1,2.6,1.3,3.9l5.1,28.8c0.3,1.6,1.6,2.7,3.2,2.8c1.6,0.1,3-1,3.4-2.6l4-17c0.6-2.3,2.6-4,5-4c2.4,0,4.5,1.6,5,4l4,17
		c0.4,1.6,1.8,2.6,3.4,2.6c1.6-0.1,2.9-1.2,3.2-2.8l5.1-28.8c0.3-1.4,0.7-2.7,1.3-3.9l3.3-6.6c1-2,1.5-4.2,1.5-6.4v-0.3
		c0-7.7-6.2-13.9-13.9-13.9c-3.4,0-6.6,1.2-9.2,3.4l-0.4,0.4l2.7,2.1c1,0.8,1.1,2.2,0.4,3.1c-0.8,1-2.2,1.1-3.1,0.4l-3.4-2.7
		L210.1,156.6L210.1,156.6z"/>
</g>
</svg>
