<?xml version="1.0" encoding="utf-8"?>
<!-- Generator: Adobe Illustrator 18.0.0, SVG Export Plug-In . SVG Version: 6.00 Build 0)  -->
<!DOCTYPE svg PUBLIC "-//W3C//DTD SVG 1.1//EN" "http://www.w3.org/Graphics/SVG/1.1/DTD/svg11.dtd">
<svg version="1.1" id="圖層_1" xmlns="http://www.w3.org/2000/svg" xmlns:xlink="http://www.w3.org/1999/xlink" x="0px" y="0px"
	 viewBox="0 0 320 400" enable-background="new 0 0 320 400" xml:space="preserve">
<g>
	<path opacity="0.2" d="M273.1,64.9c-62.5-62.5-163.8-62.5-226.3,0c-62.5,62.5-62.5,163.8,0,226.3l102.5,102.5
		c6,5.5,15.3,5.5,21.3,0l102.5-102.5C335.6,228.7,335.6,127.4,273.1,64.9z"/>
	<path fill="#FF6169" d="M273.1,49.1c-62.5-62.5-163.8-62.5-226.3,0c-62.5,62.5-62.5,163.8,0,226.3l102.5,102.5
		c6,5.5,15.3,5.5,21.3,0l102.5-102.5C335.6,212.9,335.6,111.6,273.1,49.1z"/>
	<circle opacity="0.1" cx="160" cy="178" r="108.8"/>
	<circle fill="#FFFFFF" cx="160" cy="162.2" r="108.8"/>
	<path fill="#FF6169" d="M168.7,183.8c0,16.2,8,30.5,20.4,39.2h-72.7c-9.6,0-17.4-7.8-17.4-17.4v-43.7h-8.7c-4.9,0-8.7-3.8-8.7-8.7
		c0-2.5,0.8-4.6,2.7-6.5l69.8-60.9c1.9-1.9,4.1-2.2,6-2.2c1.9,0,4.1,0.5,5.7,1.9l58,50.9c-2.3-0.4-4.7-0.5-7.1-0.5
		c-14.9,0-28.2,6.8-37,17.4h-11v-13.1c0-2.4-2-4.4-4.4-4.4h-8.7c-2.4,0-4.4,2-4.4,4.4v13.1h-13.1c-2.4,0-4.4,2-4.4,4.4v8.7
		c0,2.4,2,4.4,4.4,4.4h13.1v13.1c0,2.4,2,4.4,4.4,4.4h8.7C166.7,188.1,168.7,186.2,168.7,183.8z"/>
	<path fill="#FF6169" d="M216.4,155c-10.2,0-18.3,4.6-24.3,10.1c-5.9,5.5-9.8,12-11.7,16.5c-0.4,1-0.4,2.1,0,3.1
		c1.9,4.5,5.8,11,11.7,16.5c5.9,5.5,14.1,10.1,24.3,10.1s18.3-4.6,24.3-10.1c5.9-5.5,9.8-12,11.7-16.5c0.4-1,0.4-2.1,0-3.1
		c-1.9-4.5-5.8-11-11.7-16.5C234.7,159.7,226.5,155,216.4,155z M198.2,183.2c0-10,8.1-18.1,18.1-18.1s18.1,8.1,18.1,18.1
		s-8.1,18.1-18.1,18.1S198.2,193.2,198.2,183.2z M216.4,175.2c0,4.4-3.6,8.1-8.1,8.1c-0.9,0-1.8-0.2-2.6-0.4
		c-0.7-0.2-1.5,0.2-1.5,0.9c0,0.9,0.2,1.7,0.4,2.6c1.7,6.4,8.4,10.3,14.8,8.5c6.4-1.7,10.3-8.4,8.5-14.8c-1.4-5.2-6-8.7-11.2-9
		c-0.7,0-1.2,0.8-0.9,1.5C216.2,173.4,216.4,174.3,216.4,175.2L216.4,175.2z"/>
</g>
</svg>
