<?xml version="1.0" encoding="utf-8"?>
<!-- Generator: Adobe Illustrator 18.0.0, SVG Export Plug-In . SVG Version: 6.00 Build 0)  -->
<!DOCTYPE svg PUBLIC "-//W3C//DTD SVG 1.1//EN" "http://www.w3.org/Graphics/SVG/1.1/DTD/svg11.dtd">
<svg version="1.1" id="圖層_1" xmlns="http://www.w3.org/2000/svg" xmlns:xlink="http://www.w3.org/1999/xlink" x="0px" y="0px"
	 viewBox="0 0 320 400" enable-background="new 0 0 320 400" xml:space="preserve">
<g>
	<path opacity="0.2" d="M273.1,64.9c-62.5-62.5-163.8-62.5-226.3,0c-62.5,62.5-62.5,163.8,0,226.3l102.5,102.5
		c6,5.5,15.3,5.5,21.3,0l102.5-102.5C335.6,228.7,335.6,127.4,273.1,64.9z"/>
	<path fill="#FF6169" d="M273.1,49.1c-62.5-62.5-163.8-62.5-226.3,0c-62.5,62.5-62.5,163.8,0,226.3l102.5,102.5
		c6,5.5,15.3,5.5,21.3,0l102.5-102.5C335.6,212.9,335.6,111.6,273.1,49.1z"/>
	<circle opacity="0.1" cx="160" cy="178" r="108.8"/>
	<circle fill="#FFFFFF" cx="160" cy="162.2" r="108.8"/>
	<path fill="#FF6169" d="M229.7,161.9c4.6,0,8.7-3.8,8.7-8.7c0.3-2.5-0.8-4.6-3-6.5l-69.6-61.2c-1.6-1.4-3.8-1.9-5.7-1.9
		s-4.1,0.3-6,2.2l-69.9,60.9c-1.9,1.9-2.7,4.1-2.7,6.5c0,4.9,3.8,8.7,8.7,8.7H99v43.7c0,9.6,7.8,17.4,17.4,17.4h87.3
		c9.7,0,17.5-7.8,17.4-17.5l-0.2-43.6L229.7,161.9L229.7,161.9z M151.3,140.2c0-2.4,2-4.4,4.4-4.4h8.7c2.4,0,4.4,2,4.4,4.4v13.1
		h13.1c2.4,0,4.4,2,4.4,4.4v8.7c0,2.4-2,4.4-4.4,4.4h-13.1v13.1c0,2.4-2,4.4-4.4,4.4h-8.7c-2.4,0-4.4-2-4.4-4.4v-13.1h-13.1
		c-2.4,0-4.4-2-4.4-4.4v-8.7c0-2.4,2-4.4,4.4-4.4h13.1V140.2z"/>
</g>
</svg>
