<?xml version="1.0" encoding="utf-8"?>
<!-- Generator: Adobe Illustrator 18.0.0, SVG Export Plug-In . SVG Version: 6.00 Build 0)  -->
<!DOCTYPE svg PUBLIC "-//W3C//DTD SVG 1.1//EN" "http://www.w3.org/Graphics/SVG/1.1/DTD/svg11.dtd">
<svg version="1.1" id="圖層_1" xmlns="http://www.w3.org/2000/svg" xmlns:xlink="http://www.w3.org/1999/xlink" x="0px" y="0px"
	 viewBox="0 0 320 400" enable-background="new 0 0 320 400" xml:space="preserve">
<g>
	<path opacity="0.2" d="M273.1,64.9c-62.5-62.5-163.8-62.5-226.3,0c-62.5,62.5-62.5,163.8,0,226.3l102.5,102.5
		c6,5.5,15.3,5.5,21.3,0l102.5-102.5C335.6,228.7,335.6,127.4,273.1,64.9z"/>
	<path fill="#FFDE1E" d="M273.1,49.1c-62.5-62.5-163.8-62.5-226.3,0c-62.5,62.5-62.5,163.8,0,226.3l102.5,102.5
		c6,5.5,15.3,5.5,21.3,0l102.5-102.5C335.6,212.9,335.6,111.6,273.1,49.1z"/>
	<circle opacity="0.1" cx="160" cy="178" r="108.8"/>
	<circle fill="#FFFFFF" cx="160" cy="162.2" r="108.8"/>
	<g>
		<defs>
			<circle id="SVGID_1_" cx="160" cy="162.2" r="108.8"/>
		</defs>
		<clipPath id="SVGID_2_">
			<use xlink:href="#SVGID_1_"  overflow="visible"/>
		</clipPath>
		<g clip-path="url(#SVGID_2_)">
			<rect x="51.3" y="198.9" fill="#0079C4" width="217.5" height="72"/>
			<path fill="#0079C4" d="M166.2,158.7L162,148h-6.2c0,0,7.6,18.4,7.5,18.6c0,0.1-2.6,6.5-2.7,6.7c0.2,0,6.2,0,6.2,0
				c0-0.3,9.2-25.2,9.2-25.2h-5.9L166.2,158.7z"/>
			<path fill="#0079C4" d="M141.8,138.9c-2,0-3.6,1.6-3.6,3.6s1.6,3.6,3.6,3.6c2,0,3.6-1.6,3.6-3.6
				C145.4,140.5,143.8,138.9,141.8,138.9"/>
			<path fill="#0079C4" d="M104.4,165.7c0-0.7,0-1.1,0-1.8c0-3.3,0-6.5,0-9.8c0-0.1,0-0.2,0-0.3c-0.1-1.1-0.7-5.8-6.4-6
				c0,0-1.6,0-1.6,0c-5.8,0.1-6.6,1.3-6.6,1.3v4.7c0,0,1.8-1.4,4.3-1.4c2.5,0,3.5,0.3,4,0.9c0.1,0.1,0.3,0.3,0.4,0.5
				c0.2,0.4,0.3,0.7,0.4,1.2c0,0,0,0.3-0.1,0.3c0,0-0.2,0-0.2,0c0,0-0.2,0-0.2,0c-0.1-0.1-1-0.6-4.2-0.4c-2,0.1-4.3,1.5-4.7,2.1
				c-0.6,0.7-1.9,1.7-1.9,5c0,1.1,0.4,2.5,1.4,4.2c1,1.7,4,2.1,4,2.1c1.5,0,3.2,0,3.9-0.3c0.8-0.3,1.5-0.8,1.7-1
				c0.1-0.1,0.4-0.1,0.4,0c0,0.3,0.1,0.7,0.3,1c0,0.2,0.1,0.3,0.1,0.3s5.7,0,5.8,0c-0.2-0.3-0.4-0.4-0.5-0.7
				C104.8,167.2,104.4,166.1,104.4,165.7 M98.5,163.2c-0.4,0.3-1,0.4-3.5,0.4c-0.4,0-1.9-0.6-1.9-2.3c0-3.1,3.2-2.8,4.1-2.8
				c0.9,0,1.8,0.3,1.8,1c0,0.5,0,1.9,0,2.6C99.1,162.7,98.8,163,98.5,163.2"/>
			<path fill="#0079C4" d="M223.7,165.7c0-0.7,0-1.1,0-1.8v-9.8c0-0.1,0-0.2,0-0.3c-0.1-1.1-0.7-5.8-6.4-6c0,0-1.6,0-1.6,0
				c-5.9,0.1-6.6,1.3-6.6,1.3v4.7c0,0,1.8-1.4,4.3-1.4c2.5,0,3.5,0.3,4.1,0.9c0.1,0.1,0.3,0.3,0.4,0.5c0.2,0.4,0.3,0.7,0.4,1.2
				c0,0,0,0.3-0.1,0.3s-0.2,0-0.2,0c0,0-0.2,0-0.2,0c-0.1-0.1-1-0.6-4.1-0.4c-2,0.1-4.3,1.5-4.7,2.1c-0.6,0.7-1.9,1.7-1.9,5
				c0,1.1,0.4,2.5,1.4,4.2c1,1.7,4,2.1,4,2.1c1.5,0,3.2,0,3.9-0.3c0.8-0.3,1.5-0.8,1.7-1c0.1-0.1,0.4-0.1,0.4,0c0,0.3,0.1,0.7,0.3,1
				c0.1,0.2,0.1,0.3,0.1,0.3s5.7,0,5.8,0c-0.2-0.3-0.4-0.4-0.5-0.7C224.1,167.2,223.7,166.1,223.7,165.7 M217.8,163.2
				c-0.4,0.3-1,0.4-3.5,0.4c-0.4,0-1.9-0.6-1.9-2.3c0-3.1,3.2-2.8,4.1-2.8c0.9,0,1.8,0.3,1.8,1c0,0.5,0,1.9,0,2.6
				C218.3,162.7,218,163,217.8,163.2"/>
			<path fill="#0079C4" d="M128.9,147.7c-3.1,0-5.7,1-5.8,2.4l0,0c-0.1-1.3-2.4-2.4-5.3-2.4c-2.2,0-4.1,0.7-4.9,1.6
				c0-0.4,0-0.8,0-1.3c-0.1,0-0.2,0-0.2,0c-1.5,0-3.1,0-4.6,0c-0.2,0-0.3,0.1-0.3,0.3v1.9v17.6v0.5h5.3V155c0-1.1,1.3-2,2.9-2
				c1.6,0,2.9,0.9,2.9,2v13.2h5.4V155c0-1.1,1.3-2,2.9-2c1.6,0,2.9,0.9,2.9,2v13.2h5.5v-14.1v-0.2v-0.4c0,0,0,0,0,0
				C135.2,149.5,132,147.7,128.9,147.7"/>
			<path fill="#0079C4" d="M232.2,149.7V148h-5.4v20.2h5.3v-13.1c0.6-0.5,2-1.5,3.7-1.5c2.2,0,3.2,0.8,3.2,0.8v-5.9
				c0,0-1.3-0.7-2.8-0.7C235,147.8,233.1,148.9,232.2,149.7"/>
			<rect x="139.1" y="148" fill="#0079C4" width="5.4" height="20.2"/>
			<rect x="148.5" y="139.3" fill="#0079C4" width="5.4" height="28.8"/>
			<polygon fill="#0079C4" points="74.7,144.8 87.7,144.8 87.7,139.3 74.7,139.3 69.1,139.3 69.1,144.8 69.1,168.2 74.7,168.2 
				74.7,155.5 87.2,155.5 87.2,150 74.7,150 			"/>
			<path fill="#0079C4" d="M253.4,153.2V148h-4.7v-7.6l-5.3,2.4v5.1h-3v5.3h3v8.8l0,0c0,0.1,0,0.2,0,0.3v0.2h0
				c0.3,5,4.6,5.6,6.7,5.6c2.2,0,3-0.6,3-0.6v-5c0,0-0.5,0.4-2.4,0.4c-2,0-2-2.7-2-2.7v-7.1L253.4,153.2L253.4,153.2z"/>
			<path fill="#0079C4" d="M191,148.1c-0.6-0.7-7.2-8.8-7.2-8.8H178v28.9h5.8v-19.9c0,0,6.1,7.8,7.2,9.2c1.1-1.4,7.2-9.2,7.2-9.2
				v19.9h5.9v-28.9h-5.9C198.1,139.3,191.5,147.4,191,148.1"/>
			<rect x="59.3" y="53.4" fill="#1EAA39" width="201.4" height="64"/>
		</g>
	</g>
</g>
</svg>
