<?xml version="1.0" encoding="utf-8"?>
<!-- Generator: Adobe Illustrator 18.0.0, SVG Export Plug-In . SVG Version: 6.00 Build 0)  -->
<!DOCTYPE svg PUBLIC "-//W3C//DTD SVG 1.1//EN" "http://www.w3.org/Graphics/SVG/1.1/DTD/svg11.dtd">
<svg version="1.1" id="圖層_1" xmlns="http://www.w3.org/2000/svg" xmlns:xlink="http://www.w3.org/1999/xlink" x="0px" y="0px"
	 viewBox="0 0 320 400" enable-background="new 0 0 320 400" xml:space="preserve">
<g>
	<path opacity="0.2" d="M273.1,64.9c-62.5-62.5-163.8-62.5-226.3,0c-62.5,62.5-62.5,163.8,0,226.3l102.5,102.5
		c6,5.5,15.3,5.5,21.3,0l102.5-102.5C335.6,228.7,335.6,127.4,273.1,64.9z"/>
	<path fill="#FFDE1E" d="M273.1,49.1c-62.5-62.5-163.8-62.5-226.3,0c-62.5,62.5-62.5,163.8,0,226.3l102.5,102.5
		c6,5.5,15.3,5.5,21.3,0l102.5-102.5C335.6,212.9,335.6,111.6,273.1,49.1z"/>
	<circle opacity="0.1" cx="160" cy="178" r="108.8"/>
	<circle fill="#FFFFFF" cx="160" cy="162.2" r="108.8"/>
	<g>
		<path fill="#D61918" d="M159.7,118.1c3.2-3.8,5.8-7.7,9.1-11c12.9-12.7,28.2-16.6,45.5-11.1c17.6,5.6,28.7,17.6,32.4,35.9
			c3.1,15.1-1.5,28.9-8.4,42.1c-9.5,18.1-23.2,32.9-38.4,46.3c-11.9,10.4-24.6,19.6-38,28c-0.9,0.6-2.6,0.8-3.4,0.3
			c-23.1-14.6-44.6-31.2-62-52.4c-10.5-12.8-19.1-26.7-22.8-43.1c-6.4-28,9.5-52.7,37.6-58.5c17.9-3.7,36.5,4.7,46.9,21.2
			C158.7,116.5,159.2,117.3,159.7,118.1z M185,173.9c2.5-1,3.3-0.2,3.3,2.2c-0.1,4.3-0.1,8.6,0,12.9c0.1,3.4,2.2,5.6,5.3,5.8
			c3.3,0.2,5.8-2.4,5.9-6.1c0.1-4.9,0-9.8,0-15.2c1.7,2.8,2.8,5.3,4.5,7.3c5.6,6.8,17.3,7,22.6,0.4c0.6-0.8,1-2.8,0.7-3
			c-1.8-1.3-3.8-2.5-5.9-3.2c-0.7-0.3-1.9,0.8-2.9,1.2c-3.8,1.9-7.9,0.5-8.8-3.3c4.7,0,9.4,0.1,14.1,0c4.1-0.1,6.4-3.1,5.8-7.2
			c-1-6.1-6.2-11.5-11.9-12.5c-6.5-1.1-12.9,2.2-16.1,8.3c-0.4,0.8-0.9,1.6-1.3,2.4c-0.2-0.1-0.5-0.2-0.7-0.3c0-3.1,0-6.1,0-9.2
			c0-4.2,0-4.2,4-4.5c3-0.2,5-2.3,5-5c0-2.7-2.1-4.7-5.2-4.8c-3.4-0.1-6.8,0-10.1,0c-3.6,0-5,1.4-5,4.9c-0.1,5.3,0,10.5,0,15.8
			c0,1-0.1,2-0.2,3.1c-1.1-0.1-2-0.1-3.1-0.2c0-1.4,0-2.7,0-4c-0.1-3-2.2-5.2-5-5.4c-2.9-0.2-5.8,1.9-5.9,4.9
			c-0.2,6.9-0.2,13.9,0,20.8c0.1,3,3,5.1,5.9,4.9c3-0.2,5-2.4,5-5.7C185.1,177.4,185,175.6,185,173.9z M110.4,158.3
			c-4.9,0.9-5,0.8-5-3.6c0-1.6,0.1-3.2,0-4.8c-0.2-2.4-1.3-4.3-3.6-5.2c-4.2-1.7-8.1,1.3-8.1,6.3c-0.1,9.2,0,18.4,0,27.6
			c0,0.6,0,1.1,0.1,1.7c0.6,3.2,3.1,5.3,6.1,5.1c3.1-0.1,5.3-2.3,5.6-5.6c0.1-1.6,0-3.2,0.1-4.8c0-4.2,0.5-4.5,5-3.3
			c0,2.4,0,5,0,7.5c0.1,3.6,2.6,6.2,5.9,6.2c3.3,0,5.7-2.4,5.7-6c0.1-9.7,0.1-19.5,0-29.2c0-3.5-2.6-6-5.8-6c-3.1,0-5.7,2.7-5.7,6.1
			C110.3,152.9,110.4,155.5,110.4,158.3z M163.1,174c0-1.3,0-2.3,0-3.3c0-6.8,0-13.7,0-20.5c0-3.5-1.9-5.4-5-5.5
			c-3-0.1-5.4,2-5.4,5.2c-0.1,10.4,0,20.8,0,31.2c0,2.1,1.1,3.3,3.3,3.3c3.7,0,7.3,0.1,11,0c2.9-0.1,4.9-2.2,5.1-5
			c0.1-2.8-2-5.2-5-5.4C165.8,173.9,164.6,174,163.1,174z M131.4,129.2c-2.3-2.6-4.9-3.9-8.3-2.5c-4,1.6-5.6,5.9-3.6,10.3
			c2.3,5.1,6.4,8.5,10.9,11.4c0.5,0.3,1.5,0.4,2,0.1c4.4-2.9,8.5-6.1,10.8-11.1c1.9-4,1.1-7.7-1.8-9.8
			C138.3,125.2,135.1,125.7,131.4,129.2z M137,169.1c0-3.6,0-7.1,0-10.7c-0.1-3.4-2.1-5.7-5.1-5.9c-3.3-0.2-5.9,1.7-6,5.3
			c-0.2,7.4-0.2,14.8,0,22.2c0.1,3.5,2.8,5.6,5.9,5.4c3.1-0.2,5.1-2.6,5.2-6.2C137.1,175.9,137,172.5,137,169.1z M185.2,146.4
			c0-3-2.6-5.5-5.6-5.6c-3.1,0-5.7,2.7-5.6,5.8c0.1,3,2.7,5.5,5.7,5.4C182.8,151.9,185.2,149.4,185.2,146.4z M145,169.2
			c3.5,0,5.2-1.4,5.1-4.4c0-2.8-1.8-4.3-5-4.3c-3.4,0-5.3,1.5-5.3,4.3C139.7,167.6,141.6,169.2,145,169.2z"/>
		<path fill="#FFFFFF" d="M185,173.9c0,1.7,0,3.5,0,5.2c-0.1,3.2-2,5.5-5,5.7c-2.9,0.2-5.8-1.9-5.9-4.9c-0.2-6.9-0.2-13.9,0-20.8
			c0.1-3,3-5.1,5.9-4.9c2.8,0.2,4.9,2.4,5,5.4c0,1.3,0,2.6,0,4c1.1,0.1,1.9,0.1,3.1,0.2c0.1-1.1,0.2-2.1,0.2-3.1
			c0-5.3,0-10.5,0-15.8c0-3.6,1.4-4.9,5-4.9c3.4,0,6.8-0.1,10.1,0c3,0.1,5.1,2,5.2,4.8c0,2.7-2,4.8-5,5c-4,0.3-4,0.3-4,4.5
			c0,3.1,0,6.1,0,9.2c0.2,0.1,0.5,0.2,0.7,0.3c0.4-0.8,0.9-1.6,1.3-2.4c3.2-6.2,9.6-9.4,16.1-8.3c5.7,1,10.9,6.4,11.9,12.5
			c0.7,4.1-1.6,7.1-5.8,7.2c-4.7,0.1-9.4,0-14.1,0c0.9,3.8,5,5.2,8.8,3.3c1-0.5,2.2-1.5,2.9-1.2c2.1,0.8,4.1,1.9,5.9,3.2
			c0.4,0.3-0.1,2.3-0.7,3c-5.3,6.6-17,6.4-22.6-0.4c-1.7-2-2.8-4.5-4.5-7.3c0,5.4,0.1,10.3,0,15.2c-0.1,3.7-2.6,6.3-5.9,6.1
			c-3.1-0.2-5.2-2.4-5.3-5.8c-0.1-4.3-0.1-8.6,0-12.9C188.4,173.8,187.6,173,185,173.9z M219.9,163.8c-1.4-2.2-3-3.3-5-2.9
			c-1.6,0.3-3,1.4-4.5,2.1c0.1,0.3,0.3,0.5,0.4,0.8C213.7,163.8,216.5,163.8,219.9,163.8z"/>
		<path fill="#FFFFFF" d="M110.4,158.3c0-2.8,0-5.4,0-8c0.1-3.4,2.6-6,5.7-6.1c3.2,0,5.8,2.5,5.8,6c0.1,9.7,0.1,19.5,0,29.2
			c0,3.5-2.4,6-5.7,6c-3.3,0-5.8-2.6-5.9-6.2c0-2.5,0-5,0-7.5c-4.5-1.3-5-0.9-5,3.3c0,1.6,0.1,3.2-0.1,4.8c-0.3,3.3-2.5,5.5-5.6,5.6
			c-3,0.1-5.5-1.9-6.1-5.1c-0.1-0.5-0.1-1.1-0.1-1.7c0-9.2-0.1-18.4,0-27.6c0-5,4-8,8.1-6.3c2.3,1,3.5,2.8,3.6,5.2
			c0.1,1.6,0,3.2,0,4.8C105.4,159.1,105.4,159.2,110.4,158.3z"/>
		<path fill="#FFFFFF" d="M163.1,174c1.5,0,2.7-0.1,3.9,0c2.9,0.2,5.1,2.6,5,5.4c-0.1,2.8-2.1,4.9-5.1,5c-3.7,0.1-7.3,0-11,0
			c-2.2,0-3.3-1.2-3.3-3.3c0-10.4-0.1-20.8,0-31.2c0-3.2,2.4-5.3,5.4-5.2c3.1,0.1,5,2.1,5,5.5c0,6.8,0,13.7,0,20.5
			C163.1,171.7,163.1,172.7,163.1,174z"/>
		<path fill="#FFFFFF" d="M131.4,129.2c3.7-3.5,6.9-3.9,10-1.7c3,2.1,3.7,5.8,1.8,9.8c-2.3,5-6.4,8.2-10.8,11.1
			c-0.5,0.3-1.5,0.3-2-0.1c-4.5-2.9-8.7-6.3-10.9-11.4c-2-4.5-0.4-8.7,3.6-10.3C126.5,125.3,129.1,126.6,131.4,129.2z"/>
		<path fill="#FFFFFF" d="M137,169.1c0,3.4,0,6.7,0,10.1c0,3.6-2,6-5.2,6.2c-3.1,0.2-5.8-2-5.9-5.4c-0.2-7.4-0.2-14.8,0-22.2
			c0.1-3.5,2.7-5.5,6-5.3c3.1,0.2,5.1,2.5,5.1,5.9C137.1,162,137,165.6,137,169.1z"/>
		<path fill="#FFFFFF" d="M185.2,146.4c0,3-2.4,5.6-5.5,5.6c-3,0.1-5.6-2.4-5.7-5.4c-0.1-3.1,2.5-5.8,5.6-5.8
			C182.6,140.8,185.2,143.4,185.2,146.4z"/>
		<path fill="#FFFFFF" d="M145,169.2c-3.4,0-5.3-1.6-5.2-4.4c0-2.8,1.9-4.3,5.3-4.3c3.3,0,5,1.5,5,4.3
			C150.2,167.7,148.5,169.2,145,169.2z"/>
		<path fill="#D61918" d="M219.9,163.8c-3.3,0-6.2,0-9.1,0c-0.1-0.3-0.3-0.5-0.4-0.8c1.5-0.7,2.9-1.9,4.5-2.1
			C216.9,160.6,218.5,161.7,219.9,163.8z"/>
	</g>
</g>
</svg>
