<?xml version="1.0" encoding="utf-8"?>
<!-- Generator: Adobe Illustrator 18.0.0, SVG Export Plug-In . SVG Version: 6.00 Build 0)  -->
<!DOCTYPE svg PUBLIC "-//W3C//DTD SVG 1.1//EN" "http://www.w3.org/Graphics/SVG/1.1/DTD/svg11.dtd">
<svg version="1.1" id="圖層_1" xmlns="http://www.w3.org/2000/svg" xmlns:xlink="http://www.w3.org/1999/xlink" x="0px" y="0px"
	 viewBox="0 0 512 512" enable-background="new 0 0 512 512" xml:space="preserve">
<g>
	<path opacity="0.2" d="M277.8,380.4c-21.6,18-30.9,40.4-21.1,63c5.3,12.4,6.3,25.2,2,38.8c-2,6.4-3.8,12.8-5.6,19.2
		c-2.6,9.1,9.4,13.4,24.1,8.7c10.7-3.4,21.5-6.8,32.1-10.4c21.7-7.3,44.2-11.3,67.7-13.5c54.7-5.3,96-23.4,121-53.5
		c32.3-39.2,7.2-79.3-55.4-91.4C389,330.8,320.8,345.9,277.8,380.4z"/>
	<path fill="#6CA77F" d="M51.4,215.9c1.6,55.5,28,110.9,82.1,152.1c29.5,22.6,53.7,49.5,71.7,82.1c8.5,15.4,17.4,30.5,26.1,45.7
		c12.4,21.6,37.1,21.6,49.5,0.1c9-15.7,18.3-31.3,26.9-47.2c17.7-32.6,42.5-58.4,71.5-81.4c67.8-53.7,94.1-124.5,75.7-208.8
		C431,49.2,324.3-17.9,214.3,4.2C120.3,23.1,50.9,108.2,51.4,215.9z"/>
	<path opacity="0.2" d="M307.7,448.7c17.7-32.6,42.5-58.4,71.5-81.4c34.8-27.6,58.7-59.7,71.2-95.8l-86.4-86.4L326,174l-27-47
		l-44.7-40L204,134l-16,41l-24.3,12.7l-0.7,85.4l-30.5,18.4l168.8,168.8C303.5,456.4,305.6,452.6,307.7,448.7z"/>
	<path fill="#FFFFFF" d="M129.1,281.2c0.9-1.8,1.5-3.8,2.7-5.4c2.1-2.9,5.1-4.3,8.7-4.3c3.7,0,7.4,0,11.5,0c0-1.3,0-2.3,0-3.3
		c0-28.7,0-57.3,0-86c0-8.6,4.4-12.9,12.9-13c3.5,0,6.9-0.1,10.4,0c1.8,0.1,2.4-0.6,2.9-2.2c2.4-8.6,4.7-17.3,7.4-25.8
		c8.8-27.2,27.3-43.9,55.1-50.2c0.4-0.1,0.9-0.2,1.3-0.3c0.2-0.1,0.5-0.2,1-0.5c0-4.1-0.1-8.4,0-12.6c0.2-6,5.1-10.6,11.1-10.6
		c6.2,0,11.1,4.5,11.4,10.7c0.1,2.9,0.1,5.9,0.1,8.8c0,4,0,3.9,3.8,4.9c27.8,6.8,45.7,24.1,54,51.4c2.4,8.1,4.7,16.2,6.9,24.3
		c0.5,1.7,1.1,2.3,2.9,2.2c3.7-0.1,7.5-0.1,11.2,0c7.5,0.1,12.1,4.7,12.1,12.2c0,28.8,0,57.7,0,86.5c0,1.1,0,2.1,0,3.6
		c2.8,0,5.4,0,8,0c9.2,0,11.5,1.5,14.9,9.7c0,1.1,0,2.1,0,3.2c-3.4,8.2-5.6,9.7-14.8,9.7c-73.7,0-147.4,0-221.1,0
		c-1.2,0-2.3,0-3.5,0c-4.9-0.4-8.2-3-10-7.5c-0.3-0.7-0.6-1.4-0.8-2.2C129.1,283.3,129.1,282.3,129.1,281.2z M333.7,191.9
		c-3.6,0-6.8,0-10.1,0c-6.8-0.1-10.5-2.8-12.4-9.4c-3.4-11.7-6.6-23.4-10.1-35c-6.1-20.8-25.1-35-46.6-35
		c-21.6-0.1-40.9,14.2-47,34.9c-3.5,11.7-6.7,23.5-10.1,35.3c-1.9,6.5-5.6,9.3-12.4,9.3c-3.3,0-6.5,0-9.9,0c0,26.7,0,53,0,79.4
		c11.4,0,22.5,0,33.9,0c0-1.3,0-2.3,0-3.3c0-17.5,0-35,0-52.5c0-5.6,2.6-9.6,7.1-11.4c7.6-3,15.5,2.5,15.5,11.1
		c0.1,17.7,0,35.3,0,53c0,1,0,2.1,0,3.2c15.3,0,30.3,0,45.5,0c0-1.1,0-2.1,0-3c0-11.2,0-22.4,0-33.5c0-6.8-0.1-13.7,0.1-20.5
		c0.1-6.3,5.1-11,11.4-10.9c6.5,0.1,11.1,4.9,11.2,12c0,17.7,0,35.3,0,53c0,1,0,2,0,3c11.6,0,22.8,0,34,0
		C333.7,244.8,333.7,218.5,333.7,191.9z"/>
</g>
</svg>
