<?xml version="1.0" encoding="utf-8"?>
<!-- Generator: Adobe Illustrator 18.0.0, SVG Export Plug-In . SVG Version: 6.00 Build 0)  -->
<!DOCTYPE svg PUBLIC "-//W3C//DTD SVG 1.1//EN" "http://www.w3.org/Graphics/SVG/1.1/DTD/svg11.dtd">
<svg version="1.1" id="圖層_1" xmlns="http://www.w3.org/2000/svg" xmlns:xlink="http://www.w3.org/1999/xlink" x="0px" y="0px"
	 viewBox="0 0 320 400" enable-background="new 0 0 320 400" xml:space="preserve">
<g>
	<path opacity="0.2" d="M273.1,64.9c-62.5-62.5-163.8-62.5-226.3,0c-62.5,62.5-62.5,163.8,0,226.3l102.5,102.5
		c6,5.5,15.3,5.5,21.3,0l102.5-102.5C335.6,228.7,335.6,127.4,273.1,64.9z"/>
	<path fill="#FFDE1E" d="M273.1,49.1c-62.5-62.5-163.8-62.5-226.3,0c-62.5,62.5-62.5,163.8,0,226.3l102.5,102.5
		c6,5.5,15.3,5.5,21.3,0l102.5-102.5C335.6,212.9,335.6,111.6,273.1,49.1z"/>
	<circle opacity="0.1" cx="160" cy="178" r="108.8"/>
	<circle fill="#FFFFFF" cx="160" cy="162.2" r="108.8"/>
	<g>
		<path fill="#D23832" d="M179.7,138.1c0.4-0.5,0.7-0.8,0.9-1.1c4.5-5.8,9.1-11.6,13.6-17.5c3-3.9,6.9-5.6,11.7-4.3
			c5.1,1.4,8.4,4.6,9.5,9.9c0.7,3.6-0.2,6.9-2.5,9.9c-2.6,3.3-5.2,6.7-7.8,10.1c-0.3,0.3-0.5,0.7-0.8,1.1c0.4,0.3,0.6,0.6,1,0.8
			c7.2,5.8,14.3,11.6,21.4,17.5c3.8,3.1,5.2,7.2,4.1,11.9c-1.1,4.8-4.2,7.9-8.9,9.1c-3.8,1-7.4,0.1-10.5-2.4
			c-7-5.6-13.9-11.3-20.9-16.9c-0.3-0.3-0.7-0.5-1.1-0.8c-0.6,0.7-1.1,1.3-1.5,2c-0.2,0.3-0.1,0.9,0,1.3c1.1,4.3,2.3,8.5,3.5,12.8
			c1.9,7-2.3,13.7-9.4,15c-5.9,1.1-11.9-2.6-13.5-8.4c-3.3-12-6.6-24.1-9.9-36.2c-1.2-4.4-2.5-8.8-3.6-13.3
			c-1.4-6.3,2.6-12.5,8.7-14c6.2-1.5,12.5,2.1,14.3,8.3C178.7,134.4,179.2,136.1,179.7,138.1z"/>
		<path fill="#D23832" d="M159.9,236.7c-20.4,0-40.9,0-61.3,0c-5.5,0-9.6-2.5-12.1-7.5c-0.9-1.7-1.2-3.6-1.2-5.6c0-3.6,0-7.2,0-10.7
			c0-2,1.2-2.7,3-1.9c10,4.3,20.4,6.7,31.1,8c12,1.4,24,1.4,36.1,0.2c20.1-2,39.3-6.9,57.7-15.4c6.4-2.9,12.5-6.3,18.3-10.3
			c0.7-0.5,1.5-0.8,2.3-0.3c0.8,0.4,0.9,1.2,0.9,2.1c0,9.4,0,18.9,0,28.3c0,7.4-5.8,13.1-13.3,13.1
			C200.9,236.8,180.4,236.7,159.9,236.7z"/>
		<path fill="#D23832" d="M159.9,87.2c20.4,0,40.9,0,61.3,0c6.1,0,11,3.4,12.8,8.9c0.4,1.3,0.6,2.8,0.7,4.2c0.1,3.5,0,6.9,0,10.4
			c0,2.2-1.1,2.9-3.1,2.1c-9-3.9-18.5-6.2-28.2-7.6c-8.6-1.2-17.3-1.7-26-1.4c-28.5,1-55.5,7.5-80.6,21.3c-2.8,1.6-5.6,3.4-8.3,5.1
			c-0.7,0.5-1.5,0.8-2.3,0.4c-0.8-0.5-0.9-1.2-0.9-2.1c0-9.3,0-18.6,0-28c0-7.8,5.6-13.4,13.4-13.4
			C119.1,87.2,139.5,87.2,159.9,87.2z"/>
		<path fill="#D23832" d="M88.7,173.1c0-19.4,15.9-35.1,35.3-35.1c19.4,0,35.1,15.8,35,35.3c0,19.3-15.9,35.1-35.3,35
			C104.5,208.3,88.7,192.4,88.7,173.1z M108.3,173.1c0,8.6,7,15.7,15.6,15.8c8.5,0.1,15.7-7,15.7-15.6c0-8.6-6.9-15.8-15.5-15.8
			C115.4,157.5,108.3,164.4,108.3,173.1z"/>
	</g>
</g>
</svg>
