<?xml version="1.0" encoding="utf-8"?>
<!-- Generator: Adobe Illustrator 18.0.0, SVG Export Plug-In . SVG Version: 6.00 Build 0)  -->
<!DOCTYPE svg PUBLIC "-//W3C//DTD SVG 1.1//EN" "http://www.w3.org/Graphics/SVG/1.1/DTD/svg11.dtd">
<svg version="1.1" id="圖層_1" xmlns="http://www.w3.org/2000/svg" xmlns:xlink="http://www.w3.org/1999/xlink" x="0px" y="0px"
	 viewBox="0 0 320 400" enable-background="new 0 0 320 400" xml:space="preserve">
<g>
	<path opacity="0.2" d="M273.1,64.9c-62.5-62.5-163.8-62.5-226.3,0c-62.5,62.5-62.5,163.8,0,226.3l102.5,102.5
		c6,5.5,15.3,5.5,21.3,0l102.5-102.5C335.6,228.7,335.6,127.4,273.1,64.9z"/>
	<path fill="#7DD81D" d="M273.1,49.1c-62.5-62.5-163.8-62.5-226.3,0c-62.5,62.5-62.5,163.8,0,226.3l102.5,102.5
		c6,5.5,15.3,5.5,21.3,0l102.5-102.5C335.6,212.9,335.6,111.6,273.1,49.1z"/>
	<circle opacity="0.1" cx="160" cy="178" r="108.8"/>
	<circle fill="#FFFFFF" cx="160" cy="162.2" r="108.8"/>
	<path fill="#7DD81D" d="M156,83.5l-44.9,49.4c-1.2,1.3-1.8,3-1.8,4.7c0,3.9,3.1,7,7,7h7.5l-22.2,22.2c-1.3,1.3-2,3-2,4.8
		c0,3.8,3,6.8,6.8,6.8h10.1l-22.5,27c-1.1,1.3-1.6,2.9-1.6,4.5c0,3.9,3.2,7.1,7.1,7.1h50.9v9.7c0,5.3,4.3,9.7,9.7,9.7
		s9.7-4.3,9.7-9.7V217h50.9c3.9,0,7.1-3.2,7.1-7.1c0-1.7-0.6-3.3-1.6-4.5l-22.5-27h10.1c3.8,0,6.8-3,6.8-6.8c0-1.8-0.7-3.6-2-4.8
		l-22.2-22.2h7.5c3.8,0,7-3.1,7-7c0-1.7-0.6-3.4-1.8-4.7L164,83.5c-1-1.1-2.5-1.8-4-1.8S157,82.3,156,83.5z"/>
</g>
</svg>
