<?xml version="1.0" encoding="utf-8"?>
<!-- Generator: Adobe Illustrator 18.0.0, SVG Export Plug-In . SVG Version: 6.00 Build 0)  -->
<!DOCTYPE svg PUBLIC "-//W3C//DTD SVG 1.1//EN" "http://www.w3.org/Graphics/SVG/1.1/DTD/svg11.dtd">
<svg version="1.1" id="圖層_1" xmlns="http://www.w3.org/2000/svg" xmlns:xlink="http://www.w3.org/1999/xlink" x="0px" y="0px"
	 viewBox="0 0 512 512" enable-background="new 0 0 512 512" xml:space="preserve">
<g>
	<path opacity="0.2" d="M277.8,380.4c-21.6,18-30.9,40.4-21.1,63c5.3,12.4,6.3,25.2,2,38.8c-2,6.4-3.8,12.8-5.6,19.2
		c-2.6,9.1,9.4,13.4,24.1,8.7c10.7-3.4,21.5-6.8,32.1-10.4c21.7-7.3,44.2-11.3,67.7-13.5c54.7-5.3,96-23.4,121-53.5
		c32.3-39.2,7.2-79.3-55.4-91.4C389,330.8,320.8,345.9,277.8,380.4z"/>
	<path fill="#6FB730" d="M51.4,215.9c1.6,55.5,28,110.9,82.1,152.1c29.5,22.6,53.7,49.5,71.7,82.1c8.5,15.4,17.4,30.5,26.1,45.7
		c12.4,21.6,37.1,21.6,49.5,0.1c9-15.7,18.3-31.3,26.9-47.2c17.7-32.6,42.5-58.4,71.5-81.4c67.8-53.7,94.1-124.5,75.7-208.8
		C431,49.2,324.3-17.9,214.3,4.2C120.3,23.1,50.9,108.2,51.4,215.9z"/>
	<path opacity="0.2" d="M316.9,433.4c16.7-25.5,38-46.8,62.3-66.1c41-32.5,66.9-71.3,76.8-115.6l-74.9-74.9l-45.6-9.4l-66.5-36
		l-51,5L151,205l-3.2,40.7l72.2,71.6l-4.7,14.5L316.9,433.4z"/>
	<g>
		<path fill="#FFFFFF" d="M232.4,89c3,0.9,6,1.6,8.9,2.6c13.6,4.6,22.9,13.9,28.9,27.4c6.8-9.4,15.4-16,26.7-18.3
			c11.3-2.3,21.9-0.5,31.7,5.7c16.8,10.7,22.6,28.7,16.5,51.7c1.5,0.2,3,0.4,4.4,0.5c21.5,1.6,39.4,17.4,43.1,38
			c4,22-7.3,43.4-27.6,52.1c-3.7,1.6-5.6,3.3-6.5,7.6c-3.9,18.4-15.1,30.8-33.2,36c-17.9,5.1-33.7,0.5-46.9-12.6
			c-0.5-0.5-0.9-1.3-1.4-2.1c-1.7,1.3-2.8,2.2-4.5,3.4c0-10.5,0-20.4,0-30.9c11.9-3.2,23.7-6.3,35.5-9.4
			c11.8-3.1,19.1-10.5,18.3-20.7c-0.5-6.2-2.2-12.6-4.9-18.2c-3.7-8.1-13.3-11.8-22.1-9.7c-6.9,1.6-13.7,3.5-21.2,5.5
			c2.5-8.8,4.7-16.8,6.9-24.8c3.9-14-1.9-24.3-15.8-28c-3.9-1-7.9-2.2-11.8-2.2c-9.1,0-16.3,6-19.3,15.4
			c-4.3,13.7-8.6,27.5-12.9,41.2c-0.4,1.3-0.9,2.6-1.7,4.9c-4.1-4.4-7.9-8.1-11.2-12.1c-11.2-13.5-25.8-14-37.9,0.2
			c-3.8,4.4-6.8,8.7-7.1,14.7c-0.3,6.7,2.2,12,6.9,16.6c11.4,11.4,22.8,22.8,34.3,34.2c1.9,1.9,2.8,3.6,2.2,6.5
			c-1.1,5.1-1.6,10.3-2.5,16.3c-7.1-6.6-10.8-14.2-13-21.8c-7.6,0-14.9,0.9-21.9-0.2c-27.8-4.2-45.3-31.8-37.7-58.8
			c0.8-2.9,0.5-4.5-2-6.6c-15.5-13-19-35-8.4-52.2c10.7-17.3,32-24,50.8-15.9c1.2,0.5,2.5,1,4,1.6c3.9-15.5,12.6-26.8,27-33.3
			c4-1.8,8.4-2.9,12.6-4.3C223.7,89,228,89,232.4,89z"/>
		<path fill="#FFFFFF" d="M260.1,331.9c-15,0-29.4,0-44.3,0c1.3-9.7,2.6-19.1,3.9-28.5c2-13.8,4-27.6,6.1-41.4
			c0.7-4.7-0.4-8.3-3.9-11.7c-12.1-11.8-24-23.9-35.9-35.8c-5.6-5.6-5.6-7.2,0.1-12.9c0.5-0.5,1.1-1.1,1.6-1.6
			c4.3-4.2,6.7-4.3,11-0.1c6.5,6.4,13.4,12.6,19.3,19.5c7,8.1,15.2,5.2,18-4.7c4.8-17,10.3-33.8,15.6-50.6c2.1-6.6,3.8-7.5,10.6-5.7
			c1.2,0.3,2.4,0.6,3.6,1c5,1.5,6.2,3.6,4.9,8.6c-3.3,11.8-6.6,23.6-9.9,35.3c-0.3,1-0.6,2.1-0.9,3.1c-1.8,7.4,1.5,10.9,8.9,9.1
			c9.8-2.5,19.4-5.2,29.2-7.8c1.5-0.4,3.2-1.4,4.5-1.1c2.3,0.7,5.1,1.7,6.2,3.5c1.6,2.5,2.1,5.8,2.6,8.8c0.7,4.3-2.3,6-5.9,6.9
			c-12.9,3.4-25.7,6.9-38.6,10.3c-7.4,2-9.1,4-9.3,11.7C256.7,275.7,256.9,303.6,260.1,331.9z"/>
	</g>
</g>
</svg>
