<?xml version="1.0" encoding="utf-8"?>
<!-- Generator: Adobe Illustrator 18.0.0, SVG Export Plug-In . SVG Version: 6.00 Build 0)  -->
<!DOCTYPE svg PUBLIC "-//W3C//DTD SVG 1.1//EN" "http://www.w3.org/Graphics/SVG/1.1/DTD/svg11.dtd">
<svg version="1.1" id="圖層_1" xmlns="http://www.w3.org/2000/svg" xmlns:xlink="http://www.w3.org/1999/xlink" x="0px" y="0px"
	 viewBox="0 0 320 400" enable-background="new 0 0 320 400" xml:space="preserve">
<g>
	<path opacity="0.2" d="M273.1,64.9c-62.5-62.5-163.8-62.5-226.3,0c-62.5,62.5-62.5,163.8,0,226.3l102.5,102.5
		c6,5.5,15.3,5.5,21.3,0l102.5-102.5C335.6,228.7,335.6,127.4,273.1,64.9z"/>
	<path fill="#FFDE1E" d="M273.1,49.1c-62.5-62.5-163.8-62.5-226.3,0c-62.5,62.5-62.5,163.8,0,226.3l102.5,102.5
		c6,5.5,15.3,5.5,21.3,0l102.5-102.5C335.6,212.9,335.6,111.6,273.1,49.1z"/>
	<circle opacity="0.1" cx="160" cy="178" r="108.8"/>
	<g>
		<circle fill="#FFFFFF" cx="160" cy="162" r="104.6"/>
		<path fill="#E39938" d="M197.9,106.8c-13.6,8.3-25.6,17.6-35.5,29.2c-3.2,3.7-6.3,5-11,4.9c-13.8-0.3-27.5-0.2-41.3-0.1
			c-2.5,0-3.2-0.7-3.2-3.1c0.1-9.4,0.1-18.8,0-28.2c0-2.1,0.3-3.2,2.8-3.2c28.8,0.1,57.6,0.1,86.5,0.1
			C196.5,106.4,196.8,106.5,197.9,106.8z"/>
		<path fill="#D13E39" d="M213.6,124.9c0,4.9-0.1,9.9,0,14.8c0,2-0.4,3.1-2.4,4c-12.5,5.5-21.5,14.5-25.9,27.7
			c-0.6,1.7-1.5,2.3-3.3,2.3c-10.5-0.1-20.9-0.1-31.4,0c-2.8,0-2.6-1-2-3.1c5.6-19.4,17.3-34.4,33-46.6c8.5-6.6,17.5-12.2,27.6-16
			c4.4-1.6,4.4-1.6,4.4,2.9C213.6,115.5,213.6,120.2,213.6,124.9z"/>
		<path fill="#D13E39" d="M179.7,245.6c0,2.1-0.6,2.9-2.8,2.9c-11.9-0.1-23.7-0.1-35.6,0c-2,0-2.7-0.6-2.6-2.6
			c0.7-12.9,1.5-25.8,2.8-38.7c0.2-1.7,0.9-2.1,2.4-2.1c11.4,0,22.8,0.1,34.2,0c1.9,0,2.4,0.6,2.4,2.4c-0.1,6.3,0,12.7,0,19
			C180.3,226.6,179.6,239.3,179.7,245.6z"/>
		<path fill="#4D9346" d="M194.2,188.5c0-3.4,0.1-6.8,0-10.2c0-1.7,0.5-2.3,2.2-2.2c4,0,7.9,0.3,12-0.5c3.6-0.7,6,1.8,6.1,5.5
			c0.1,5.9-0.1,11.8,0.1,17.6c0.1,2.2-0.8,3-2.9,2.7c-0.8-0.1-1.7-0.1-2.5,0c-2.5,0.4-2.9-0.9-2.9-3c0.1-4.3,0.1-8.7,0-13
			c0-1.4,0.3-3.5-1.9-3.4c-2.1,0-2,1.9-2,3.4c0,4.2-0.2,8.5,0.1,12.7c0.2,2.9-1,3.8-3.6,3.4c-0.8-0.1-1.6-0.1-2.5,0
			c-1.7,0.2-2.3-0.7-2.2-2.3C194.3,195.6,194.2,192,194.2,188.5z"/>
		<path fill="#4B9244" d="M166.1,189.5c0.8-3.7,1.7-7.4,2.3-11.2c0.7-4,3.7-2.1,5.6-2.1c2.3,0,0.8,2,0.6,2.9c-1.2,6.7-2.8,13.3-4,20
			c-0.4,2-1.2,2.4-3,2.4c-8.7,0.2-8.6,0.2-10-8.2c-0.8-5-1.6-10-2.5-14.9c-0.3-1.9,0.1-2.7,2-2.4c0.1,0,0.2,0,0.4,0
			c5.6-0.2,5.6-0.2,6.4,5.3c0.4,2.6,0.8,5.3,1.1,7.9C165.5,189.4,165.8,189.4,166.1,189.5z"/>
		<path fill="#4E9346" d="M106.3,188.5c0-3.3,0.1-6.6,0-9.9c-0.1-1.9,0.4-2.7,2.5-2.6c3,0.2,6.1,0.1,9.1,0c1.8-0.1,2.5,0.4,2.5,2.3
			c0,2-0.6,2.8-2.6,2.6c-1.9-0.2-3.4-0.1-3.2,2.6c0.1,2,0.7,2.7,2.6,2.5c1.7-0.2,3.2-0.3,3.2,2.3c0,2.4-1,2.8-3,2.6
			c-2.1-0.3-2.9,0.4-2.9,2.7c0,2.2,0.7,3,2.8,2.7c1.9-0.2,3,0.1,3,2.5c0,2.6-1.5,2.4-3.2,2.4c-2.5,0-4.9-0.2-7.4,0
			c-2.6,0.2-3.8-0.5-3.6-3.4C106.5,194.9,106.3,191.7,106.3,188.5z"/>
		<path fill="#4E9447" d="M176.9,188.5c0-3.4,0.1-6.8,0-10.2c-0.1-1.7,0.5-2.3,2.2-2.2c3.2,0.1,6.3,0.1,9.5,0
			c1.9-0.1,2.3,0.8,2.3,2.5c0,1.8-0.5,2.7-2.4,2.4c-2.1-0.2-3.6-0.1-3.4,2.8c0.1,1.9,0.7,2.5,2.5,2.3c1.8-0.2,3.4-0.2,3.4,2.6
			c0,2.7-1.6,2.5-3.2,2.3c-2-0.2-2.6,0.6-2.6,2.6c0,2.1,0.5,3.1,2.8,2.8c1.8-0.2,3.1,0,3.1,2.5c0,2.6-1.4,2.5-3.2,2.5
			c-2.7,0-5.4-0.1-8.1,0c-2.1,0.1-3-0.5-2.8-2.7C177.1,195.3,176.9,191.9,176.9,188.5z"/>
		<path fill="#4B9243" d="M139.3,188.4c0-3.2,0.1-6.3,0-9.5c-0.2-2.4,0.8-3,3-2.9c2.8,0.2,5.6,0.1,8.4,0c1.7-0.1,2.5,0.3,2.5,2.3
			c0,1.9-0.5,2.9-2.6,2.6c-1.8-0.2-3.3-0.3-3.3,2.6c0,2.9,1.6,2.7,3.4,2.5c2.1-0.2,2.5,0.8,2.6,2.7c0,2-0.8,2.4-2.5,2.3
			c-1.8-0.1-3.4-0.4-3.4,2.5c0,2.8,1.3,3.1,3.4,2.9c1.8-0.2,2.5,0.5,2.5,2.3c0,2-0.7,2.7-2.7,2.6c-2.8-0.1-5.6-0.1-8.4,0
			c-2.1,0.1-2.9-0.6-2.8-2.8C139.4,195.2,139.3,191.8,139.3,188.4z"/>
		<path fill="#4E9346" d="M132.4,186.3c0,2.5,0.1,4.9,0,7.4c-0.1,2.1,0.5,3.1,2.7,2.8c1.9-0.3,2.6,0.5,2.6,2.5c0,2.2-1,2.5-2.8,2.4
			c-2.7-0.1-5.4-0.1-8.1,0c-2.1,0.1-2.9-0.5-2.8-2.7c0.1-6.7,0.1-13.4,0-20.1c0-2,0.6-2.6,2.6-2.6c5.8-0.1,5.8-0.2,5.8,5.7
			C132.4,183.2,132.4,184.7,132.4,186.3z"/>
		<path fill="#4E9346" d="M160,53.5c-60.1,0-108.8,48.7-108.8,108.8S99.9,271,160,271s108.8-48.7,108.8-108.7S220.1,53.5,160,53.5z
			 M233.9,95.7c-2.1,24.5-4.1,49-6.2,73.5c-1.9,22.5-3.8,45-5.7,67.5c-0.4,4.6-3.5,7.4-8.2,7.5c-9.5,0.1-19.1,0.1-28.6,0
			c-2.6,0-3.9,0.5-3.5,3.4c0.4,2.7-1.1,3.7-3.8,3.7c-12.4-0.1-24.7-0.1-37.1,0c-2.7,0-4.1-1-3.7-3.7c0.4-3-1-3.4-3.6-3.4
			c-8.9,0.1-17.9,0.1-26.8,0c-5.7,0-8.5-2.8-9-8.6c-2.2-27-4.5-53.9-6.8-80.8c-1.7-20-3.4-40.1-5.1-60.1c-0.5-6.4,2.6-9.6,9.1-9.6
			c21.8,0,43.5,0,65.3,0c21.3,0,42.6,0,63.9,0C231.8,85,234.6,88.2,233.9,95.7z"/>
	</g>
</g>
</svg>
