<?xml version="1.0" encoding="utf-8"?>
<!-- Generator: Adobe Illustrator 18.0.0, SVG Export Plug-In . SVG Version: 6.00 Build 0)  -->
<!DOCTYPE svg PUBLIC "-//W3C//DTD SVG 1.1//EN" "http://www.w3.org/Graphics/SVG/1.1/DTD/svg11.dtd">
<svg version="1.1" id="圖層_1" xmlns="http://www.w3.org/2000/svg" xmlns:xlink="http://www.w3.org/1999/xlink" x="0px" y="0px"
	 viewBox="0 0 512 512" enable-background="new 0 0 512 512" xml:space="preserve">
<g>
	<path opacity="0.2" d="M277.8,380.4c-21.6,18-30.9,40.4-21.1,63c5.3,12.4,6.3,25.2,2,38.8c-2,6.4-3.8,12.8-5.6,19.2
		c-2.6,9.1,9.4,13.4,24.1,8.7c10.7-3.4,21.5-6.8,32.1-10.4c21.7-7.3,44.2-11.3,67.7-13.5c54.7-5.3,96-23.4,121-53.5
		c32.3-39.2,7.2-79.3-55.4-91.4C389,330.8,320.8,345.9,277.8,380.4z"/>
	<path fill="#EDDD53" d="M51.4,215.9c1.6,55.5,28,110.9,82.1,152.1c29.5,22.6,53.7,49.5,71.7,82.1c8.5,15.4,17.4,30.5,26.1,45.7
		c12.4,21.6,37.1,21.6,49.5,0.1c9-15.7,18.3-31.3,26.9-47.2c17.7-32.6,42.5-58.4,71.5-81.4c67.8-53.7,94.1-124.5,75.7-208.8
		C431,49.2,324.3-17.9,214.3,4.2C120.3,23.1,50.9,108.2,51.4,215.9z"/>
	<path opacity="0.2" d="M138,327.8l152.1,152.1c6-10.3,11.9-20.7,17.6-31.1c17.7-32.6,42.5-58.4,71.5-81.4
		c66.9-53,93.4-122.6,76.4-205.4L379.7,86L138,327.8z"/>
	<g>
		<circle fill="#FFFFFF" cx="256" cy="204.5" r="165"/>
		<path fill="#E39938" d="M315.8,117.3c-21.5,13.1-40.4,27.8-56,46.1c-5,5.9-9.9,7.9-17.4,7.8c-21.7-0.5-43.4-0.3-65.2-0.1
			c-3.9,0-5-1-5-5c0.2-14.8,0.2-29.7,0-44.6c0-3.3,0.5-5,4.5-5c45.5,0.1,91,0.1,136.4,0.1C313.6,116.7,314.1,116.9,315.8,117.3z"/>
		<path fill="#D13E39" d="M340.6,145.9c0,7.8-0.1,15.6,0.1,23.4c0.1,3.1-0.7,4.9-3.8,6.3c-19.8,8.7-33.9,22.9-40.9,43.6
			c-0.9,2.8-2.4,3.6-5.2,3.6c-16.5-0.1-33-0.2-49.5,0c-4.5,0.1-4.1-1.6-3.2-4.9c8.8-30.7,27.3-54.3,52.1-73.5
			c13.4-10.4,27.6-19.3,43.6-25.3c6.9-2.6,6.9-2.6,6.9,4.5C340.6,131,340.6,138.5,340.6,145.9z"/>
		<path fill="#D13E39" d="M287.1,336.4c0.1,3.3-0.9,4.6-4.4,4.5c-18.7-0.1-37.5-0.1-56.2,0c-3.1,0-4.2-0.9-4-4.1
			c1.1-20.4,2.3-40.7,4.5-61c0.3-2.7,1.4-3.3,3.9-3.3c18,0.1,36,0.1,54,0c3,0,3.8,1,3.7,3.8c-0.1,10-0.1,20-0.1,30
			C288,306.3,287,326.4,287.1,336.4z"/>
		<path fill="#4D9346" d="M310,246.3c0-5.4,0.1-10.8,0-16.1c-0.1-2.6,0.9-3.6,3.5-3.5c6.3,0.1,12.5,0.5,18.9-0.8
			c5.7-1.2,9.5,2.8,9.6,8.7c0.1,9.3-0.1,18.5,0.1,27.8c0.1,3.5-1.2,4.7-4.5,4.3c-1.3-0.2-2.6-0.2-3.9,0c-3.9,0.6-4.6-1.4-4.5-4.8
			c0.2-6.9,0.1-13.7,0-20.6c0-2.3,0.5-5.5-3-5.4c-3.4,0-3.1,3-3.1,5.4c0,6.7-0.3,13.4,0.1,20c0.3,4.7-1.5,5.9-5.7,5.4
			c-1.3-0.2-2.6-0.1-3.9,0c-2.7,0.2-3.6-1.1-3.5-3.6C310.1,257.4,310,251.8,310,246.3z"/>
		<path fill="#4B9244" d="M265.7,247.8c1.2-5.9,2.6-11.7,3.7-17.6c1.1-6.2,5.9-3.3,8.9-3.3c3.6,0,1.2,3.2,1,4.6
			c-1.9,10.6-4.4,21-6.2,31.6c-0.6,3.2-1.9,3.7-4.7,3.8c-13.7,0.3-13.6,0.4-15.7-12.9c-1.3-7.9-2.5-15.7-3.9-23.6
			c-0.6-2.9,0.1-4.2,3.2-3.8c0.2,0,0.4,0,0.6,0c8.8-0.2,8.8-0.2,10.2,8.4c0.7,4.2,1.2,8.4,1.8,12.5
			C264.7,247.7,265.2,247.7,265.7,247.8z"/>
		<path fill="#4E9346" d="M171.3,246.3c0-5.2,0.2-10.4-0.1-15.5c-0.1-3,0.6-4.3,3.9-4.1c4.8,0.3,9.6,0.2,14.4,0
			c2.8-0.1,3.9,0.7,3.9,3.7c0,3.1-0.9,4.5-4.1,4.1c-3-0.3-5.3-0.2-5.1,4.1c0.2,3.2,1.1,4.3,4.2,4c2.6-0.3,5-0.5,5.1,3.7
			c0,3.8-1.6,4.5-4.7,4c-3.3-0.4-4.6,0.6-4.6,4.2c0,3.4,1.1,4.8,4.5,4.3c3-0.4,4.8,0.1,4.7,4c0,4.1-2.4,3.8-5.1,3.8
			c-3.9,0-7.8-0.3-11.7,0.1c-4.2,0.3-6.1-0.7-5.6-5.4C171.6,256.3,171.3,251.3,171.3,246.3z"/>
		<path fill="#4E9447" d="M282.7,246.2c0-5.4,0.1-10.8-0.1-16.1c-0.1-2.7,0.8-3.6,3.5-3.5c5,0.2,10,0.2,15,0
			c3.1-0.1,3.7,1.2,3.7,3.9c0,2.8-0.8,4.2-3.8,3.9c-3.3-0.4-5.7-0.1-5.4,4.4c0.2,2.9,1.1,4,3.9,3.7c2.9-0.3,5.4-0.3,5.3,4.1
			c0,4.2-2.4,3.9-5,3.7c-3.2-0.3-4.2,0.9-4.2,4.1c0,3.3,0.8,4.9,4.3,4.5c2.8-0.3,4.9-0.1,4.9,3.9c0,4-2.3,3.9-5,3.9
			c-4.3-0.1-8.5-0.2-12.8,0c-3.3,0.2-4.7-0.8-4.5-4.3C282.9,257,282.7,251.6,282.7,246.2z"/>
		<path fill="#4B9243" d="M223.3,246.1c0-5,0.2-10-0.1-15c-0.2-3.8,1.2-4.8,4.7-4.5c4.4,0.3,8.9,0.2,13.3,0c2.7-0.1,4,0.5,4,3.6
			c0,3-0.8,4.5-4.1,4.2c-2.9-0.3-5.3-0.4-5.3,4.1c0,4.5,2.5,4.3,5.3,4c3.4-0.3,4,1.3,4,4.2c0.1,3.1-1.2,3.8-4,3.6
			c-2.8-0.2-5.4-0.6-5.4,4c0,4.4,2.1,4.9,5.4,4.5c2.8-0.3,3.9,0.7,3.9,3.7c0,3.1-1,4.3-4.2,4.1c-4.4-0.2-8.9-0.2-13.3,0
			c-3.3,0.2-4.6-0.9-4.5-4.4C223.5,256.9,223.3,251.5,223.3,246.1z"/>
		<path fill="#4E9346" d="M212.4,242.7c0,3.9,0.2,7.8-0.1,11.7c-0.2,3.3,0.8,4.9,4.3,4.4c3.1-0.5,4.2,0.7,4.2,4
			c0,3.5-1.7,3.9-4.5,3.8c-4.3-0.1-8.5-0.2-12.8,0c-3.3,0.2-4.5-0.8-4.5-4.3c0.2-10.5,0.2-21.1,0-31.6c-0.1-3.2,0.9-4,4.1-4.1
			c9.2-0.1,9.2-0.2,9.2,8.9C212.4,237.9,212.4,240.3,212.4,242.7z"/>
		<path fill="#4E9346" d="M256,33.2c-94.8,0-171.6,76.8-171.6,171.6S161.2,376.4,256,376.4s171.6-76.8,171.6-171.6
			S350.8,33.2,256,33.2z M372.7,99.9c-3.3,38.6-6.5,77.3-9.8,115.9c-3,35.5-5.9,71-9,106.5c-0.6,7.3-5.5,11.7-13,11.8
			c-15,0.1-30.1,0.2-45.1-0.1c-4.1-0.1-6.2,0.7-5.6,5.4c0.6,4.3-1.7,5.9-5.9,5.8c-19.5-0.1-39-0.1-58.5,0c-4.3,0-6.4-1.5-5.8-5.8
			c0.7-4.7-1.6-5.4-5.7-5.3c-14.1,0.2-28.2,0.1-42.3,0.1c-9,0-13.4-4.4-14.2-13.5c-3.5-42.5-7.2-85-10.8-127.6
			c-2.7-31.6-5.4-63.2-8-94.8c-0.8-10.1,4-15.2,14.3-15.2c34.3,0,68.7,0,103,0c33.6,0,67.2,0,100.8,0
			C369.3,82.9,373.7,88,372.7,99.9z"/>
	</g>
</g>
</svg>
