<?xml version="1.0" encoding="utf-8"?>
<!-- Generator: Adobe Illustrator 18.0.0, SVG Export Plug-In . SVG Version: 6.00 Build 0)  -->
<!DOCTYPE svg PUBLIC "-//W3C//DTD SVG 1.1//EN" "http://www.w3.org/Graphics/SVG/1.1/DTD/svg11.dtd">
<svg version="1.1" id="圖層_1" xmlns="http://www.w3.org/2000/svg" xmlns:xlink="http://www.w3.org/1999/xlink" x="0px" y="0px"
	 viewBox="0 0 512 512" enable-background="new 0 0 512 512" xml:space="preserve">
<g>
	<path opacity="0.2" d="M277.8,380.4c-21.6,18-30.9,40.4-21.1,63c5.3,12.4,6.3,25.2,2,38.8c-2,6.4-3.8,12.8-5.6,19.2
		c-2.6,9.1,9.4,13.4,24.1,8.7c10.7-3.4,21.5-6.8,32.1-10.4c21.7-7.3,44.2-11.3,67.7-13.5c54.7-5.3,96-23.4,121-53.5
		c32.3-39.2,7.2-79.3-55.4-91.4C389,330.8,320.8,345.9,277.8,380.4z"/>
	<path fill="#FCB045" d="M51.4,215.9c1.6,55.5,28,110.9,82.1,152.1c29.5,22.6,53.7,49.5,71.7,82.1c8.5,15.4,17.4,30.5,26.1,45.7
		c12.4,21.6,37.1,21.6,49.5,0.1c9-15.7,18.3-31.3,26.9-47.2c17.7-32.6,42.5-58.4,71.5-81.4c67.8-53.7,94.1-124.5,75.7-208.8
		C431,49.2,324.3-17.9,214.3,4.2C120.3,23.1,50.9,108.2,51.4,215.9z"/>
	<path opacity="0.2" d="M379.2,367.3c40.6-32.2,66.3-70.5,76.5-114.1l-69.3-69.3L313,111l0.7,24l-63.2,18l-14.7-28.7l-33.5,1.4
		l12.4,42.6L118.5,273l184.3,184.3c1.6-2.9,3.2-5.7,4.8-8.6C325.4,416.2,350.1,390.3,379.2,367.3z"/>
	<g>
		<path fill="#FFFFFF" d="M351.5,290c-5.7-1.2-11.6-1.8-17.1-3.7c-36.5-12.4-50.5-58.2-27.3-88.9c0.5-0.6,1-1.2,1.8-2
			c2.8,6.7,5.5,13.1,8.1,19.6c0.3,0.8-0.1,1.9-0.4,2.8c-8.6,23.7,5.9,49,30.6,53.2c19.2,3.3,38.5-8.5,44.4-27.2c6-19-3-39.5-21-47.9
			c-2-0.9-3.2-2.2-4-4.2c-2.3-5.7-4.7-11.4-7.4-17.9c4.5,1,8.4,1.5,12,2.8c22.5,8,35.9,23.7,39.9,47.3c0.1,0.8,0.4,1.5,0.6,2.3
			c0,3.9,0,7.7,0,11.6c-0.2,0.6-0.5,1.1-0.5,1.7c-3.2,23.3-19.6,42.2-42.4,48.3c-4.1,1.1-8.3,1.6-12.4,2.3
			C354.7,290,353.1,290,351.5,290z"/>
		<path fill="#FFFFFF" d="M100.3,225.5c0.8-3.3,1.4-6.7,2.4-10c8.1-28.1,36.2-45.8,65-41c0.8,0.1,1.6,0.4,2.7,0.7
			c-0.5,0.8-0.9,1.4-1.4,2c-1.8,2.2-3.8,4.2-5.5,6.5c-3.8,5.2-8.4,8.4-15.2,10c-18.6,4.3-30.5,21.2-29.8,40.2
			c0.7,18.1,14.4,33.8,32.8,37c12.7,2.2,24-1.3,33.8-9.8c1.2-1.1,3.1-1.8,4.7-1.9c6.3-0.2,12.5-0.1,19.4-0.1
			c-2.6,5.2-5.8,9.4-9.6,13.2c-10.2,10.2-22.4,16.1-36.8,17.3c-1,0.1-2,0.3-3,0.5c-1.4,0-2.8,0-4.3,0c-0.8-0.2-1.5-0.4-2.3-0.5
			c-24.8-2.2-45.4-19.8-51.3-43.9c-0.6-2.6-1.2-5.3-1.7-7.9C100.3,233.6,100.3,229.5,100.3,225.5z"/>
		<path fill="#FFFFFF" d="M214,133.4c2.9,6.7,5.5,12.9,8.2,19.2c26.7-7,53.3-13.9,79.9-20.8c-1.9-4.6-3.7-8.9-5.4-13.2
			c-2.4-6-0.1-10.9,6-13c9.3-3.2,18.6-6.3,27.9-9.3c5.4-1.8,10.5,0.6,12.2,5.5c1.6,5-0.9,9.9-6.3,11.8c-5.4,1.9-10.9,3.7-16.4,5.5
			c-0.9,0.3-1.8,0.7-3,1.1c2.7,6.5,5.3,12.7,7.9,18.9c12.2,29.2,24.4,58.5,36.5,87.7c0.8,1.8,1.3,3.9,1.2,5.8
			c-0.2,4.2-3.5,7.5-7.4,8.1c-4.5,0.6-8.2-1.4-10-5.7c-5.1-11.9-10-23.9-15-35.8c-5.5-13.2-11-26.3-16.5-39.5
			c-0.4-0.9-0.8-1.8-1.4-3.1c-2.1,2.9-4,5.4-5.9,8c-17.2,23.6-34.4,47.1-51.5,70.8c-2.7,3.8-6,5.6-10.7,5.5
			c-28.3-0.1-56.6-0.1-84.8-0.1c-5.8,0-9.4-2.9-10.2-7.9c-0.5-3.2,0.9-5.7,2.9-8c15.5-18,30.9-36,46.3-54c2.6-3.1,6.6-6,7.2-9.4
			c0.5-3.3-2.6-7.2-4.1-10.8c-2-4.7-4.2-9.2-5.9-14c-1-2.7-2.5-3.6-5.2-3.3c-1.2,0.2-2.4,0.1-3.6-0.1c-5-0.6-8.4-4.4-8.3-9.2
			c0.1-4.8,3.7-8.7,8.7-8.8c7.7-0.2,15.4-0.1,23.1-0.1c5.2,0,10.3-0.1,15.5,0c5.9,0.1,10.1,3.9,10,9.1c0,5.3-4.1,9-10.1,9.1
			C222,133.4,218.3,133.4,214,133.4z M292.2,153.2c-21.4,5.6-41.9,10.9-62.7,16.3c6.3,14.7,12.5,29.1,18.8,43.9
			C263,193.3,277.3,173.6,292.2,153.2z M178.3,222.4c18.4,0,36,0,54,0c-6-14-11.9-27.8-18-42C202.2,194.5,190.5,208.2,178.3,222.4z"
			/>
	</g>
</g>
</svg>
