<?xml version="1.0" encoding="utf-8"?>
<!-- Generator: Adobe Illustrator 18.0.0, SVG Export Plug-In . SVG Version: 6.00 Build 0)  -->
<!DOCTYPE svg PUBLIC "-//W3C//DTD SVG 1.1//EN" "http://www.w3.org/Graphics/SVG/1.1/DTD/svg11.dtd">
<svg version="1.1" id="圖層_1" xmlns="http://www.w3.org/2000/svg" xmlns:xlink="http://www.w3.org/1999/xlink" x="0px" y="0px"
	 viewBox="0 0 320 400" enable-background="new 0 0 320 400" xml:space="preserve">
<g>
	<path opacity="0.2" d="M273.1,64.9c-62.5-62.5-163.8-62.5-226.3,0c-62.5,62.5-62.5,163.8,0,226.3l102.5,102.5
		c6,5.5,15.3,5.5,21.3,0l102.5-102.5C335.6,228.7,335.6,127.4,273.1,64.9z"/>
	<path fill="#FF8400" d="M273.1,49.1c-62.5-62.5-163.8-62.5-226.3,0c-62.5,62.5-62.5,163.8,0,226.3l102.5,102.5
		c6,5.5,15.3,5.5,21.3,0l102.5-102.5C335.6,212.9,335.6,111.6,273.1,49.1z"/>
	<circle opacity="0.1" cx="160" cy="178" r="108.8"/>
	<circle fill="#FFFFFF" cx="160" cy="162.2" r="108.8"/>
	<g>
		<path fill="#FF8400" d="M215.6,210.8c-3.3-0.7-6.8-1.1-10-2.2c-21.2-7.2-29.4-33.9-15.9-51.7c0.3-0.4,0.6-0.7,1.1-1.2
			c1.6,3.9,3.2,7.6,4.7,11.4c0.2,0.5-0.1,1.1-0.2,1.6c-5,13.8,3.4,28.5,17.8,31c11.2,1.9,22.4-5,25.9-15.9c3.5-11-1.7-23-12.2-27.9
			c-1.2-0.5-1.8-1.3-2.3-2.4c-1.3-3.3-2.7-6.6-4.3-10.4c2.6,0.6,4.9,0.9,7,1.6c13.1,4.6,20.9,13.8,23.2,27.5
			c0.1,0.5,0.2,0.9,0.3,1.3c0,2.2,0,4.5,0,6.7c-0.1,0.3-0.3,0.6-0.3,1c-1.8,13.6-11.4,24.5-24.7,28.1c-2.4,0.6-4.8,0.9-7.2,1.4
			C217.5,210.8,216.5,210.8,215.6,210.8z"/>
		<path fill="#FF8400" d="M69.4,173.2c0.5-1.9,0.8-3.9,1.4-5.8c4.7-16.4,21.1-26.7,37.9-23.9c0.5,0.1,0.9,0.2,1.6,0.4
			c-0.3,0.4-0.5,0.8-0.8,1.1c-1.1,1.3-2.2,2.5-3.2,3.8c-2.2,3-4.9,4.9-8.8,5.8C86.5,157.1,79.6,167,80,178.1
			c0.4,10.5,8.4,19.7,19.1,21.5c7.4,1.3,14-0.8,19.7-5.7c0.7-0.6,1.8-1.1,2.8-1.1c3.6-0.1,7.3-0.1,11.3-0.1c-1.5,3-3.4,5.5-5.6,7.7
			c-5.9,6-13,9.4-21.4,10c-0.6,0-1.2,0.2-1.7,0.3c-0.8,0-1.7,0-2.5,0c-0.5-0.1-0.9-0.3-1.4-0.3c-14.4-1.3-26.4-11.5-29.8-25.5
			c-0.4-1.5-0.7-3.1-1-4.6C69.4,178,69.4,175.6,69.4,173.2z"/>
		<path fill="#FF8400" d="M135.6,119.6c1.7,3.9,3.2,7.5,4.8,11.2c15.6-4,31-8.1,46.5-12.1c-1.1-2.7-2.2-5.2-3.2-7.7
			c-1.4-3.5-0.1-6.3,3.5-7.5c5.4-1.8,10.8-3.6,16.3-5.4c3.1-1,6.1,0.3,7.1,3.2c1,2.9-0.6,5.8-3.6,6.9c-3.2,1.1-6.4,2.1-9.5,3.2
			c-0.5,0.2-1.1,0.4-1.8,0.7c1.6,3.8,3.1,7.4,4.6,11c7.1,17,14.2,34,21.2,51c0.4,1.1,0.7,2.3,0.7,3.4c-0.1,2.4-2.1,4.4-4.3,4.7
			c-2.6,0.4-4.7-0.8-5.8-3.3c-2.9-6.9-5.8-13.9-8.7-20.9c-3.2-7.7-6.4-15.3-9.6-23c-0.2-0.5-0.5-1.1-0.8-1.8
			c-1.2,1.7-2.3,3.2-3.4,4.7c-10,13.7-20,27.4-30,41.2c-1.6,2.2-3.5,3.2-6.2,3.2c-16.5-0.1-32.9,0-49.4,0c-3.4,0-5.5-1.7-5.9-4.6
			c-0.3-1.8,0.5-3.3,1.7-4.7c9-10.5,18-20.9,26.9-31.4c1.5-1.8,3.9-3.5,4.2-5.5c0.3-1.9-1.5-4.2-2.4-6.3c-1.1-2.7-2.4-5.4-3.4-8.1
			c-0.6-1.6-1.4-2.1-3-1.9c-0.7,0.1-1.4,0-2.1,0c-2.9-0.3-4.9-2.6-4.8-5.4c0.1-2.8,2.1-5.1,5.1-5.1c4.5-0.1,9,0,13.4-0.1
			c3,0,6,0,9,0c3.5,0,5.9,2.3,5.8,5.3c0,3.1-2.4,5.2-5.9,5.3C140.2,119.7,138,119.6,135.6,119.6z M181.1,131.2
			c-12.4,3.2-24.4,6.3-36.5,9.5c3.7,8.6,7.3,16.9,11,25.5C164.1,154.5,172.4,143.1,181.1,131.2z M114.8,171.5c10.7,0,21,0,31.4,0
			c-3.5-8.2-6.9-16.2-10.5-24.5C128.7,155.2,121.9,163.2,114.8,171.5z"/>
	</g>
</g>
</svg>
